<?xml version="1.0"?>
<svg xmlns:rdf="http://www.w3.org/1999/02/22-rdf-syntax-ns#" xmlns="http://www.w3.org/2000/svg" xmlns:cc="http://web.resource.org/cc/" xmlns:xlink="http://www.w3.org/1999/xlink" xmlns:dc="http://purl.org/dc/elements/1.1/" xmlns:svg="http://www.w3.org/2000/svg" id="svg3512" viewBox="0 0 80 80" version="1.0" y="0" x="0">
  <g id="layer1">
    <g id="g3535" transform="matrix(.96875 0 0 .98751 1.2501 -.25079)" fill-rule="evenodd">
      <path id="path2742" d="m54.962 37.281l17.138-10.262 7.678 14.835c1.855 8.105-8.309 11.079-16.47 10.596l-8.346-15.169z"/>
      <path id="path2743" d="m51.067 47.877l-9.013 15.95 9.013 16.173 0.223-6.469h8.235c3.005 0.26 6.899-1.711 8.346-4.573l10.572-19.408c-3.487 3.458-7.971 4.35-13.131 4.35h-13.911l-0.334-6.023z"/>
      <path id="path2751" d="m30.928 28.212l-17.269-10.037 9.213-13.93c6.17-5.5589 13.698 1.9041 17.237 9.29l-9.181 14.677z"/>
      <path id="path2752" d="m42.062 26.482l18.288 0.157 9.732-15.749-5.751 2.945-3.997-7.2167c-1.231-2.7593-4.84-5.216-8.04-5.0942l-22.06 0.156c4.708 1.3773 7.663 4.8732 10.168 9.3959l6.752 12.19-5.092 3.216z"/>
      <path id="path2753" d="m0.44401 27.381l5.3508 4.101-5.036 9.464c-2.5181 4.365 1.8077 8.616 4.5639 10.096 2.7133 1.457 6.9243 1.63 10.859 1.577l7.082-11.357 5.35 2.839-9.285-16.878-18.885 0.158z"/>
      <path id="path2754" d="m1.2309 49.307l11.488 20.821c2.309 2.892 6.663 3.576 11.174 3.471h12.118v-19.718l-22.977-0.158c-3.5671 0.211-8.2359-0.525-11.803-4.416z"/>
    </g>
  </g>
  <metadata>
    <rdf:RDF>
      <cc:Work>
        <dc:format>image/svg+xml</dc:format>
        <dc:type rdf:resource="http://purl.org/dc/dcmitype/StillImage"/>
        <cc:license rdf:resource="http://creativecommons.org/licenses/publicdomain/"/>
        <dc:publisher>
          <cc:Agent rdf:about="http://openclipart.org/">
            <dc:title>Openclipart</dc:title>
          </cc:Agent>
        </dc:publisher>
        <dc:title>Recycling Symbol</dc:title>
        <dc:date>2008-07-18T19:10:57</dc:date>
        <dc:description>clip art, clipart, image, line art, line art, media, png, public domain, recycle, recycle, sign, sign, silhouette, silhouette, svg, symbol, symbol, </dc:description>
        <dc:source>http://openclipart.org/detail/17937/recycling-symbol-by-aj</dc:source>
        <dc:creator>
          <cc:Agent>
            <dc:title>AJ</dc:title>
          </cc:Agent>
        </dc:creator>
        <dc:subject>
          <rdf:Bag>
            <rdf:li>clip art</rdf:li>
            <rdf:li>clipart</rdf:li>
            <rdf:li>image</rdf:li>
            <rdf:li>line art</rdf:li>
            <rdf:li>media</rdf:li>
            <rdf:li>png</rdf:li>
            <rdf:li>public domain</rdf:li>
            <rdf:li>recycle</rdf:li>
            <rdf:li>sign</rdf:li>
            <rdf:li>silhouette</rdf:li>
            <rdf:li>svg</rdf:li>
            <rdf:li>symbol</rdf:li>
          </rdf:Bag>
        </dc:subject>
      </cc:Work>
      <cc:License rdf:about="http://creativecommons.org/licenses/publicdomain/">
        <cc:permits rdf:resource="http://creativecommons.org/ns#Reproduction"/>
        <cc:permits rdf:resource="http://creativecommons.org/ns#Distribution"/>
        <cc:permits rdf:resource="http://creativecommons.org/ns#DerivativeWorks"/>
      </cc:License>
    </rdf:RDF>
  </metadata>
</svg>
