<?xml version="1.0" encoding="UTF-8" standalone="no"?>
<svg
   xmlns:dc="http://purl.org/dc/elements/1.1/"
   xmlns:cc="http://creativecommons.org/ns#"
   xmlns:rdf="http://www.w3.org/1999/02/22-rdf-syntax-ns#"
   xmlns:svg="http://www.w3.org/2000/svg"
   xmlns="http://www.w3.org/2000/svg"
   xmlns:xlink="http://www.w3.org/1999/xlink"
   width="48"
   height="48"
   viewBox="0 0 48 48"
   id="svg2"
   version="1.1">
  <defs
     id="defs4">
    <linearGradient
       id="linearGradient4146">
      <stop
         style="stop-color:#808080;stop-opacity:1"
         offset="0"
         id="stop4148" />
      <stop
         id="stop4154"
         offset="0.5"
         style="stop-color:#ffffff;stop-opacity:1" />
      <stop
         style="stop-color:#808080;stop-opacity:1"
         offset="1"
         id="stop4150" />
    </linearGradient>
    <linearGradient
       xlink:href="#linearGradient4146"
       id="linearGradient4152"
       x1="7.7556323"
       y1="1042.1487"
       x2="16.24436"
       y2="1042.1487"
       gradientUnits="userSpaceOnUse" />
  </defs>
  <metadata
     id="metadata7">
    <rdf:RDF>
      <cc:Work
         rdf:about="">
        <dc:format>image/svg+xml</dc:format>
        <dc:type
           rdf:resource="http://purl.org/dc/dcmitype/StillImage" />
        <dc:title></dc:title>
      </cc:Work>
    </rdf:RDF>
  </metadata>
  <g
     id="layer1"
     transform="translate(0,-1004.3622)">
    <circle
       style="color:#000000;clip-rule:nonzero;display:inline;overflow:visible;visibility:visible;opacity:1;isolation:auto;mix-blend-mode:normal;color-interpolation:sRGB;color-interpolation-filters:linearRGB;solid-color:#000000;solid-opacity:1;fill:#ffffff;fill-opacity:1;fill-rule:nonzero;stroke:#000000;stroke-width:1;stroke-linecap:butt;stroke-linejoin:miter;stroke-miterlimit:4;stroke-dasharray:none;stroke-dashoffset:0;stroke-opacity:1;color-rendering:auto;image-rendering:auto;shape-rendering:auto;text-rendering:auto;enable-background:accumulate"
       id="path4191"
       cx="11.5"
       cy="1031.8645"
       r="0" />
    <g
       id="g4145"
       transform="matrix(2.044064,0,0,2.0545454,-0.52876845,-1109.3054)">
      <g
         transform="matrix(1,0,0,1.0029942,-8.541177e-8,-3.1502338)"
         id="g4152">
        <path
           style="color:#000000;clip-rule:nonzero;display:inline;overflow:visible;visibility:visible;opacity:1;isolation:auto;mix-blend-mode:normal;color-interpolation:sRGB;color-interpolation-filters:linearRGB;solid-color:#000000;solid-opacity:1;fill:url(#linearGradient4152);fill-opacity:1;fill-rule:nonzero;stroke:#000000;stroke-width:0.48724309;stroke-linecap:round;stroke-linejoin:miter;stroke-miterlimit:4;stroke-dasharray:none;stroke-dashoffset:0;stroke-opacity:1;color-rendering:auto;image-rendering:auto;shape-rendering:auto;text-rendering:auto;enable-background:accumulate"
           d="m 10.285392,1032.4352 0,2.6513 a 4.0007323,3.3800542 0 0 0 -2.2861332,3.0483 4.0007323,3.3800542 0 0 0 0.00223,0.068 l -0.00223,0 0,13.6594 8.0014662,0 0,-13.6594 -0.0045,0 a 4.0007323,3.3800542 0 0 0 0.0045,-0.068 4.0007323,3.3800542 0 0 0 -2.286133,-3.0483 l 0,-2.6513 -3.4292,0 z"
           id="rect4486" />
        <g
           id="g4146"
           transform="translate(0,0.06122449)">
          <path
             style="color:#000000;clip-rule:nonzero;display:inline;overflow:visible;visibility:visible;opacity:1;isolation:auto;mix-blend-mode:normal;color-interpolation:sRGB;color-interpolation-filters:linearRGB;solid-color:#000000;solid-opacity:1;fill:#808080;fill-opacity:1;fill-rule:nonzero;stroke:#000000;stroke-width:0.48724312;stroke-linecap:round;stroke-linejoin:miter;stroke-miterlimit:4;stroke-dasharray:none;stroke-dashoffset:0;stroke-opacity:1;color-rendering:auto;image-rendering:auto;shape-rendering:auto;text-rendering:auto;enable-background:accumulate"
             d="m 6.5237398,1029.1782 4.3927402,2.187 -4.3927402,2.187 z"
             id="rect4489" />
          <circle
             r="2"
             cy="1031.3652"
             cx="12"
             id="path4484"
             style="color:#000000;clip-rule:nonzero;display:inline;overflow:visible;visibility:visible;opacity:1;isolation:auto;mix-blend-mode:normal;color-interpolation:sRGB;color-interpolation-filters:linearRGB;solid-color:#000000;solid-opacity:1;fill:#808080;fill-opacity:1;fill-rule:nonzero;stroke:#000000;stroke-width:0.48724309;stroke-linecap:round;stroke-linejoin:miter;stroke-miterlimit:4;stroke-dasharray:none;stroke-dashoffset:0;stroke-opacity:1;color-rendering:auto;image-rendering:auto;shape-rendering:auto;text-rendering:auto;enable-background:accumulate" />
        </g>
      </g>
      <g
         transform="matrix(-1,0,0,1,-0.6556648,0.30612246)"
         id="g4172">
        <path
           id="rect4486-3"
           transform="matrix(-0.48922147,0,0,0.48672568,-0.91434968,1028.4702)"
           d="M 24 12.882812 L 24 12.884766 L 20.498047 12.884766 C 17.648596 14.035927 15.829476 16.483809 15.824219 19.169922 C 15.825169 19.217176 15.825987 19.261339 15.828125 19.308594 L 15.824219 19.308594 L 15.824219 22.169922 L 24 22.169922 L 32.175781 22.169922 L 32.175781 19.308594 L 32.171875 19.308594 C 32.174013 19.261339 32.174831 19.215223 32.175781 19.167969 C 32.170524 16.481856 30.351405 14.035927 27.501953 12.884766 L 27.501953 12.882812 L 24 12.882812 z "
           style="color:#000000;clip-rule:nonzero;display:inline;overflow:visible;visibility:visible;opacity:1;isolation:auto;mix-blend-mode:normal;color-interpolation:sRGB;color-interpolation-filters:linearRGB;solid-color:#000000;solid-opacity:1;fill:#00ff00;fill-opacity:1;fill-rule:nonzero;stroke:#000000;stroke-width:0.99999994;stroke-linecap:round;stroke-linejoin:miter;stroke-miterlimit:4;stroke-dasharray:none;stroke-dashoffset:0;stroke-opacity:1;color-rendering:auto;image-rendering:auto;shape-rendering:auto;text-rendering:auto;enable-background:accumulate" />
      </g>
      <path
         id="rect4155-3-6"
         d="m 23.446455,1042.5249 c -0.6008,-3.1852 -3.6154,-5.8851 -6.3063,-7.4021 0,0 4.1143,4.206 4.277,6.9099 0.1318,2.1918 -2.7705,5.9764 -2.7705,5.9764 l -0.9964,-0.5753 0.4404,4.1982 3.8986,-1.6931 -0.9215,-0.532 c 0,0 2.8285,-4.4969 2.3787,-6.882 z"
         style="color:#000000;clip-rule:nonzero;display:inline;overflow:visible;visibility:visible;opacity:1;isolation:auto;mix-blend-mode:normal;color-interpolation:sRGB;color-interpolation-filters:linearRGB;solid-color:#000000;solid-opacity:1;fill:#000000;fill-opacity:1;fill-rule:nonzero;stroke:#808080;stroke-width:0.48797193;stroke-linecap:round;stroke-linejoin:miter;stroke-miterlimit:4;stroke-dasharray:none;stroke-dashoffset:0;stroke-opacity:1;color-rendering:auto;image-rendering:auto;shape-rendering:auto;text-rendering:auto;enable-background:accumulate" />
      <path
         id="rect4155-3-6-5"
         d="m 0.55354581,1044.5244 c 0.60079999,3.1853 3.61539999,5.8852 6.30629999,7.4022 0,0 -4.1143,-4.206 -4.277,-6.91 -0.1318,-2.1917 2.7705,-5.9763 2.7705,-5.9763 l 0.9964,0.5753 -0.4404,-4.1982 -3.8986,1.693 0.9215,0.532 c 0,0 -2.82849999,4.497 -2.37869999,6.882 z"
         style="color:#000000;clip-rule:nonzero;display:inline;overflow:visible;visibility:visible;opacity:1;isolation:auto;mix-blend-mode:normal;color-interpolation:sRGB;color-interpolation-filters:linearRGB;solid-color:#000000;solid-opacity:1;fill:#000000;fill-opacity:1;fill-rule:nonzero;stroke:#808080;stroke-width:0.48797193;stroke-linecap:round;stroke-linejoin:miter;stroke-miterlimit:4;stroke-dasharray:none;stroke-dashoffset:0;stroke-opacity:1;color-rendering:auto;image-rendering:auto;shape-rendering:auto;text-rendering:auto;enable-background:accumulate" />
    </g>
  </g>
</svg>
