<?xml version="1.0" encoding="UTF-8" standalone="no"?>
<svg
   xmlns:dc="http://purl.org/dc/elements/1.1/"
   xmlns:cc="http://creativecommons.org/ns#"
   xmlns:rdf="http://www.w3.org/1999/02/22-rdf-syntax-ns#"
   xmlns:svg="http://www.w3.org/2000/svg"
   xmlns="http://www.w3.org/2000/svg"
   xmlns:xlink="http://www.w3.org/1999/xlink"
   version="1.1"
   id="svg2"
   viewBox="0 0 48 48"
   height="48"
   width="48">
  <defs
     id="defs4">
    <linearGradient
       id="linearGradient4185">
      <stop
         id="stop4187"
         offset="0"
         style="stop-color:#000000;stop-opacity:1" />
      <stop
         id="stop4189"
         offset="1"
         style="stop-color:#0000ff;stop-opacity:1" />
    </linearGradient>
    <linearGradient
       gradientTransform="translate(0,16.76955)"
       gradientUnits="userSpaceOnUse"
       y2="1021.3622"
       x2="24"
       y1="1035.3622"
       x1="24"
       id="linearGradient4191"
       xlink:href="#linearGradient4185" />
  </defs>
  <metadata
     id="metadata7">
    <rdf:RDF>
      <cc:Work
         rdf:about="">
        <dc:format>image/svg+xml</dc:format>
        <dc:type
           rdf:resource="http://purl.org/dc/dcmitype/StillImage" />
        <dc:title></dc:title>
      </cc:Work>
    </rdf:RDF>
  </metadata>
  <g
     transform="translate(0,-1004.3622)"
     id="layer1">
    <g
       transform="translate(0,-16.76955)"
       id="g4193">
      <path
         style="fill:url(#linearGradient4191);fill-opacity:1;fill-rule:evenodd;stroke:#808080;stroke-width:0.99999994px;stroke-linecap:butt;stroke-linejoin:miter;stroke-opacity:1"
         d="m 16.094202,1042.1122 c -2.863415,0 -5.011501,-3.7109 -7.8749166,-3.7109 -2.8634147,0 -7.7192854,3.7109 -7.7192854,3.7109 l 0,9.75 47,0 0,-9.75 c 0,0 -4.919583,-3.7109 -7.782998,-3.7109 -2.863416,0 -5.011502,3.7109 -7.874916,3.7109 m 3e-6,0 c -2.863416,0 -5.009556,-3.7109 -7.872971,-3.7109 -2.863415,0 -5.011501,3.7109 -7.874916,3.7109"
         id="path4135" />
      <path
         style="fill:none;fill-rule:evenodd;stroke:#000000;stroke-width:0.99999994px;stroke-linecap:butt;stroke-linejoin:miter;stroke-opacity:1"
         d="m 16.095452,1042.9872 c -2.863415,0 -5.011501,-3.7109 -7.874917,-3.7109 -2.863414,0 -7.71928498,3.7109 -7.71928498,3.7109 m 46.99999998,0 c 0,0 -4.919583,-3.7109 -7.782998,-3.7109 -2.863416,0 -5.011502,3.7109 -7.874916,3.7109 m 3e-6,0 c -2.863416,0 -5.009556,-3.7109 -7.872971,-3.7109 -2.863415,0 -5.011501,3.7109 -7.874916,3.7109"
         id="path4135-7" />
    </g>
  </g>
</svg>
