<?xml version="1.0" encoding="UTF-8" standalone="no"?>
<svg
   xmlns:dc="http://purl.org/dc/elements/1.1/"
   xmlns:cc="http://creativecommons.org/ns#"
   xmlns:rdf="http://www.w3.org/1999/02/22-rdf-syntax-ns#"
   xmlns:svg="http://www.w3.org/2000/svg"
   xmlns="http://www.w3.org/2000/svg"
   version="1.1"
   id="svg2"
   viewBox="0 0 48 48"
   height="48"
   width="48">
  <defs
     id="defs4" />
  <metadata
     id="metadata7">
    <rdf:RDF>
      <cc:Work
         rdf:about="">
        <dc:format>image/svg+xml</dc:format>
        <dc:type
           rdf:resource="http://purl.org/dc/dcmitype/StillImage" />
        <dc:title></dc:title>
      </cc:Work>
    </rdf:RDF>
  </metadata>
  <g
     transform="translate(0,-1004.3622)"
     id="layer1">
    <g
       transform="matrix(2.0436107,0,0,2.0534353,-0.52330629,-1107.8968)"
       id="g4139">
      <path
         style="color:#000000;clip-rule:nonzero;display:inline;overflow:visible;visibility:visible;opacity:1;isolation:auto;mix-blend-mode:normal;color-interpolation:sRGB;color-interpolation-filters:linearRGB;solid-color:#000000;solid-opacity:1;fill:#d40000;fill-opacity:1;fill-rule:nonzero;stroke:#000000;stroke-width:0.48815799;stroke-linecap:butt;stroke-linejoin:miter;stroke-miterlimit:4;stroke-dasharray:none;stroke-dashoffset:0;stroke-opacity:1;color-rendering:auto;image-rendering:auto;shape-rendering:auto;text-rendering:auto;enable-background:accumulate"
         d="m 6.2538289,1029.8645 c -3.1733111,0 -5.59215288,3.1331 -5.74579558,5.9188 -0.35093024,6.3627 11.55280768,14.963 11.55280768,14.963 0,0 11.795808,-8.6273 11.430375,-14.963 -0.160649,-2.7852 -2.572482,-5.9188 -5.745796,-5.9188 -3.17331,0 -5.684579,4.2527 -5.684579,4.2527 0,0 -2.6682102,-4.0423 -5.8070121,-4.2527 z"
         id="path4136" />
      <g
         id="g4136"
         style="stroke-width:1;stroke-miterlimit:4;stroke-dasharray:none"
         transform="translate(0,0.88388453)">
        <g
           id="g4157"
           transform="matrix(1,0,0,0.80840173,0,199.3316)">
          <path
             style="fill:none;fill-opacity:1;fill-rule:evenodd;stroke:#000000;stroke-width:1.08586737;stroke-linecap:round;stroke-linejoin:round;stroke-miterlimit:4;stroke-dasharray:none;stroke-opacity:1"
             d="m 1.0142312,1040.2787 5.4648292,0 3.0955059,-5.4166 3.0955047,11.0002 3.095506,-5.5836 7.22017,0"
             id="path4137" />
        </g>
      </g>
    </g>
    <path
       style="fill:none;fill-opacity:1;fill-rule:evenodd;stroke:#808080;stroke-width:2;stroke-linecap:round;stroke-linejoin:round;stroke-miterlimit:4;stroke-dasharray:none;stroke-opacity:1"
       d="m 1.5493877,1028.2434 10.6676123,0 6.826379,-9.9915 6.326007,18.26 5.825614,-8.2685 15.255612,0"
       id="path4137-6" />
  </g>
</svg>
