<?xml version="1.0" encoding="UTF-8" standalone="no"?>
<svg
   xmlns:dc="http://purl.org/dc/elements/1.1/"
   xmlns:cc="http://creativecommons.org/ns#"
   xmlns:rdf="http://www.w3.org/1999/02/22-rdf-syntax-ns#"
   xmlns:svg="http://www.w3.org/2000/svg"
   xmlns="http://www.w3.org/2000/svg"
   id="svg1349"
   version="1.1"
   viewBox="0 0 12.7 12.7"
   height="48"
   width="48">
  <defs
     id="defs1343">
    <filter
       height="1.1457137"
       y="-0.072856874"
       width="1.1520198"
       x="-0.076009908"
       id="filter856"
       style="color-interpolation-filters:sRGB">
      <feGaussianBlur
         id="feGaussianBlur858"
         stdDeviation="0.31283655" />
    </filter>
    <filter
       style="color-interpolation-filters:sRGB"
       id="filter940"
       x="-0.06129831"
       width="1.1225966"
       y="-0.058755546"
       height="1.1175111">
      <feGaussianBlur
         stdDeviation="0.25228754"
         id="feGaussianBlur942" />
    </filter>
  </defs>
  <metadata
     id="metadata1346">
    <rdf:RDF>
      <cc:Work
         rdf:about="">
        <dc:format>image/svg+xml</dc:format>
        <dc:type
           rdf:resource="http://purl.org/dc/dcmitype/StillImage" />
        <dc:title></dc:title>
      </cc:Work>
    </rdf:RDF>
  </metadata>
  <g
     id="g863"
     transform="translate(1.8939506e-4,-3.8561677e-6)">
    <g
       transform="translate(0,-284.3)"
       id="layer1">
      <g
         id="g1318"
         transform="matrix(0.26458333,0,0,0.26458333,7.9999998e-8,229.29021)">
        <rect
           style="fill:#5f9f5f;fill-opacity:1;fill-rule:nonzero;stroke:#000000;stroke-width:1;stroke-miterlimit:4;stroke-dasharray:none;stroke-opacity:1"
           id="rect3433"
           width="47"
           height="47"
           x="0.5"
           y="208.5"
           ry="0" />
        <path
           style="fill:#bbbbcc;fill-opacity:1;fill-rule:nonzero;stroke:none;stroke-width:1;stroke-miterlimit:4;stroke-dasharray:none;stroke-opacity:1"
           d="M 31.302734,249.58398 V 255.5 h 7.841797 v -5.91602 z"
           id="rect3490" />
        <path
           style="fill:#b5d0d0;fill-opacity:1;fill-rule:evenodd;stroke:#000080;stroke-width:1px;stroke-linecap:butt;stroke-linejoin:miter;stroke-opacity:1"
           d="m 0.5,255.5 h 9.630859 c 2.584657,-5.7313 -0.6809316,-9.94314 3.16211,-12.71875 4.14962,-2.99704 0.938205,-8.15378 -4.8339846,-8.43164 C 5.6049035,234.21222 2.7046158,231.77083 0.5,229.33594"
           id="path3494" />
        <path
           style="fill:none;fill-rule:evenodd;stroke:#2b1100;stroke-width:1px;stroke-linecap:butt;stroke-linejoin:miter;stroke-opacity:1"
           d="m 47.499555,225.61328 c -0.05927,-0.0102 -0.114654,-0.0345 -0.175014,-0.041 -2.57155,0.46412 -3.671443,0.81365 -7.719444,2.35156 -4.048001,1.53791 -7.636396,5.35151 2.188618,12.8789 1.798062,1.53415 3.839375,2.38356 5.70584,2.61133"
           id="path3518" />
        <path
           style="fill:none;fill-rule:evenodd;stroke:#2b1100;stroke-width:1px;stroke-linecap:butt;stroke-linejoin:miter;stroke-opacity:1"
           d="m 47.499555,221.40039 c -2.65903,0.71304 -5.969798,2.88612 -9.943818,4.03125 -12.453032,2.58836 -13.705629,4.55414 1.329796,17.8751 2.153031,1.84072 8.614022,3.89248 8.614022,3.89248"
           id="path3520" />
        <path
           style="fill:none;fill-rule:evenodd;stroke:#2b1100;stroke-width:0.99999994px;stroke-linecap:butt;stroke-linejoin:miter;stroke-opacity:1"
           d="m 47.499676,213.44922 c -3.051851,1.66007 3.815056,6.49314 -12.039544,9.18359 -15.8546,2.69045 -21.129151,10.26952 4.083336,24.1211 l 7.956208,4.37109"
           id="path3522" />
        <path
           id="path3554"
           d="m 0.5,208.5001 v 13.0068 c 2.0999394,3.44652 5.0823711,6.66915 8.2402344,9.45863 6.0685296,1.19518 9.3951956,-5.14134 12.5097656,-8.27841 5.24555,-2.13798 6.919324,-6.09711 11.958984,-8.59264 2.364092,-1.37099 5.387212,-3.30426 7.308594,-5.59438 z"
           style="opacity:1;fill:#46c646;fill-opacity:1;fill-rule:evenodd;stroke:#008000;stroke-width:1px;stroke-linecap:butt;stroke-linejoin:miter;stroke-opacity:1" />
        <path
           style="fill:none;fill-rule:evenodd;stroke:#0000ff;stroke-width:0.99999994px;stroke-linecap:butt;stroke-linejoin:miter;stroke-opacity:1"
           d="m 33.275567,209.12994 c -0.963831,-1.24007 3.330017,2.81696 2.100128,6.05604 -1.229889,3.23908 -7.454081,4.99421 -9.873047,6.47656 -2.418965,1.48234 -5.156427,3.74581 -7.06197,5.5917 -1.905543,1.84589 -5.627119,8 -5.627119,8"
           id="path3486" />
        <path
           id="path3484"
           d="m 20.596778,208.21909 c 0,0 3.947954,3.02229 7.515718,4.35708 4.665391,1.74544 12.013921,0.27222 19.387059,-0.9082"
           style="fill:none;fill-rule:evenodd;stroke:#782121;stroke-width:1px;stroke-linecap:butt;stroke-linejoin:miter;stroke-opacity:1" />
        <g
           id="g1300"
           transform="translate(-71.238012,9.204373)">
          <g
             transform="translate(-61.072713,149.82115)"
             id="g1061">
            <path
               id="path3506"
               d="m 161.11166,95.316063 c -0.46006,-13.57896 4.9368,-18.625361 -3.35351,-22.045021 -8.29032,-3.41966 0.0883,-19.14194 -12.5918,-20.35937 -4.14874,-0.13359 -7.79181,3.04064 -11.87305,6.58789"
               style="fill:none;fill-rule:evenodd;stroke:#552200;stroke-width:2.99999976;stroke-linecap:butt;stroke-linejoin:miter;stroke-miterlimit:4;stroke-dasharray:none;stroke-opacity:1" />
            <path
               style="fill:none;fill-rule:evenodd;stroke:#b3b3b3;stroke-width:0.99999994px;stroke-linecap:butt;stroke-linejoin:miter;stroke-opacity:1"
               d="m 161.11166,95.316063 c -0.46006,-13.57896 4.82248,-18.431341 -3.35351,-22.045021 -8.176,-3.61368 -0.23683,-18.54666 -12.5918,-20.35937 -4.14874,-0.13359 -7.79181,3.04064 -11.87305,6.58789"
               id="path3510" />
          </g>
        </g>
        <rect
           style="opacity:1;fill:none;fill-opacity:1;stroke:#808080;stroke-width:0.99999994;stroke-miterlimit:4;stroke-dasharray:none;stroke-dashoffset:0;stroke-opacity:1"
           id="rect1302"
           width="47"
           height="47"
           x="0.5"
           y="208.41103" />
      </g>
    </g>
    <rect
       style="opacity:1;fill:none;fill-opacity:1;stroke:#000000;stroke-width:0.26458332;stroke-miterlimit:4;stroke-dasharray:none;stroke-dashoffset:0;stroke-opacity:1"
       id="rect1302-4"
       width="11.90625"
       height="11.90625"
       x="0.39687499"
       y="0.39687499" />
  </g>
  <g
     transform="translate(0.29656416,0.19024093)"
     id="g864">
    <path
       id="rect815-3-367"
       d="m 8.7315975,3.9494155 c 0.6874084,-0.396875 1.4796165,-0.6122301 1.7028885,-0.2255136 0.223271,0.386717 -0.35402,0.974318 -1.0414291,1.371193 l -1.3748163,0.79375 c 0,0 0.936043,5.3254541 0.0195,5.8546191 L 7.3238726,12.094509 6.1086877,6.8147479 2.9976321,8.3054019 c 0,0 0.5457215,1.2674561 0.4119344,1.7718301 -0.07524,0.28366 -0.5551174,0.62601 -0.5551174,0.62601 L 0.6054901,6.807933 c 0,0 0.539854,-0.2281081 0.819701,-0.16774 0.444883,0.09596 1.32665,1.2394859 1.32665,1.2394859 L 5.5795205,5.898204 1.6353301,2.2416656 2.3227381,1.8447906 C 3.2392785,1.3156255 7.3567775,4.7431628 7.3567775,4.7431628 Z"
       style="opacity:1;fill:#050505;fill-opacity:1;stroke:none;stroke-width:0.26458332;stroke-miterlimit:4;stroke-dasharray:none;stroke-dashoffset:0;stroke-opacity:1;filter:url(#filter940)" />
    <g
       transform="translate(-0.14214541,-0.31904395)"
       id="g855">
      <g
         id="g861"
         transform="translate(-2.4754198e-4,-5.8050542e-4)">
        <path
           transform="translate(-28.925888,-6.4277495)"
           d="m 32.246094,7.3984375 c -0.107499,0.00545 -0.208146,0.030199 -0.304688,0.085937 l -0.6875,0.3964844 c -0.131528,0.075909 -0.150015,0.2629549 -0.03906,0.3652344 l 3.695312,3.4238287 0.101563,-0.113281 c -0.0064,-0.006 0.03425,0.04239 0.0293,0.03516 -0.005,-0.0072 0.02471,0.04722 0.02148,0.03906 -0.0032,-0.0082 0.01305,0.05164 0.01172,0.04297 -0.0013,-0.0087 0.0013,0.05171 0.002,0.04297 6.25e-4,-0.0087 -0.01036,0.05331 -0.0078,0.04492 0.0026,-0.0084 -0.02193,0.04863 -0.01758,0.04101 0.0043,-0.0076 -0.03327,0.04162 -0.02734,0.03516 0.0059,-0.0065 -0.04042,0.03428 -0.0332,0.0293 l -0.08594,-0.125 -2.345703,1.644531 a 0.07611145,0.07611145 0 0 0 0.07031,0.132812 c -0.01086,0.006 -0.02215,0.01176 -0.01758,0.0098 0.0085,-0.0037 -0.04425,0.01379 -0.03516,0.01172 0.0091,-0.0021 -0.04643,0.0062 -0.03711,0.0059 0.0093,-3.37e-4 -0.04633,-0.0034 -0.03711,-0.002 0.0092,0.0014 -0.0459,-0.01287 -0.03711,-0.0098 0.0088,0.0031 -0.04126,-0.02032 -0.0332,-0.01563 0.0081,0.0047 -0.03634,-0.02761 -0.0293,-0.02148 0.007,0.0061 -0.03312,-0.03467 -0.02734,-0.02734 l 0.119141,-0.09375 c -0.08903,-0.111048 -0.148195,-0.193527 -0.337891,-0.398437 -0.141948,-0.153333 -0.299241,-0.312101 -0.457031,-0.44336 -0.159433,-0.132624 -0.301714,-0.238212 -0.492188,-0.279297 -0.231626,-0.04996 -0.438826,0.0097 -0.626953,0.06445 -0.183342,0.0534 -0.328553,0.114595 -0.330078,0.115235 -0.124867,0.05311 -0.176667,0.204493 -0.109375,0.322265 l 2.248047,3.892579 a 0.07611145,0.07611145 0 0 0 0,0.002 c 0.06722,0.115921 0.222202,0.150408 0.332031,0.07227 0,0 0.130313,-0.09464 0.271485,-0.226562 0.144592,-0.135113 0.307305,-0.284901 0.371093,-0.525391 0.10076,-0.379856 -0.03524,-0.806396 -0.160156,-1.203125 -0.08109,-0.257546 -0.11985,-0.341573 -0.171875,-0.470703 l -0.140625,0.05859 c 0.0036,0.0086 -0.01361,-0.04426 -0.01172,-0.03516 0.0019,0.0091 -0.004,-0.04836 -0.0039,-0.03906 1.34e-4,0.0093 0.0055,-0.04626 0.0039,-0.03711 -0.0016,0.0092 0.01309,-0.04579 0.0098,-0.03711 -0.0033,0.0087 0.02248,-0.0411 0.01758,-0.0332 -0.0049,0.0079 0.02779,-0.03613 0.02148,-0.0293 -0.0063,0.0068 0.03678,-0.03091 0.0293,-0.02539 -0.0075,0.0055 0.03964,-0.02354 0.03125,-0.01953 l 0.06641,0.136719 2.578124,-1.234375 a 0.07611145,0.07611145 0 0 0 -0.04297,-0.144531 c 0.012,-0.0041 0.02364,-0.0087 0.01953,-0.0078 -0.0086,0.0019 0.05371,-0.0038 0.04492,-0.0039 -0.0088,-7.7e-5 0.05152,0.0079 0.04297,0.0059 -0.0085,-0.002 0.04891,0.01753 0.04102,0.01367 -0.0079,-0.0039 0.04591,0.03089 0.03906,0.02539 -0.0068,-0.0055 0.03476,0.03813 0.0293,0.03125 -0.0055,-0.0069 0.02919,0.04503 0.02539,0.03711 -0.0038,-0.0079 0.01563,0.04958 0.01367,0.04101 l -0.148437,0.03516 1.136718,4.945313 c 0.03224,0.142052 0.191006,0.218815 0.322266,0.154297 l 0.707031,-0.34961 0.0059,-0.002 a 0.07611145,0.07611145 0 0 0 0.002,-0.002 c 0.01959,-0.009 0.02269,-0.01068 0.0098,-0.0039 a 0.07611145,0.07611145 0 0 0 0.002,-0.002 c 0.195072,-0.112627 0.294193,-0.306777 0.365235,-0.53125 0.07101,-0.224372 0.111472,-0.491379 0.132812,-0.789063 0.04269,-0.595472 0.0095,-1.318023 -0.05078,-2.023436 -0.112093,-1.311623 -0.302646,-2.384346 -0.332031,-2.554688 l -0.148438,0.02734 c 0.0018,0.0097 -0.0041,-0.0411 -0.0039,-0.03125 2.38e-4,0.0098 0.0032,-0.03907 0.002,-0.0293 -0.0013,0.0098 0.0086,-0.04071 0.0059,-0.03125 -0.0028,0.0095 0.01591,-0.03821 0.01172,-0.0293 -0.0042,0.0089 0.01918,-0.03356 0.01367,-0.02539 -0.0055,0.0082 0.02623,-0.03261 0.01953,-0.02539 -0.0067,0.0072 0.03117,-0.02564 0.02344,-0.01953 -0.0077,0.0061 0.03397,-0.02242 0.02539,-0.01758 l 0.07422,0.132812 1.216797,-0.701172 c 0.362345,-0.2092 0.694824,-0.463007 0.923828,-0.740234 0.114129,-0.138163 0.203576,-0.280767 0.25,-0.4414069 0.04594,-0.158959 0.04022,-0.34577 -0.04883,-0.5 -0.08954,-0.1544229 -0.249253,-0.254449 -0.40856,-0.2929252 -0.161285,-0.038953 -0.329166,-0.029183 -0.505859,0.00195 -0.353126,0.062225 -0.736333,0.2230298 -1.097657,0.4316406 l -1.216796,0.7031255 0.07617,0.130859 c 0.0085,-0.0051 -0.03649,0.01741 -0.02734,0.01367 0.0091,-0.0037 -0.0389,0.01208 -0.0293,0.0098 0.0096,-0.0023 -0.03914,0.0067 -0.0293,0.0059 0.0098,-8.22e-4 -0.03915,-6.85e-4 -0.0293,0 0.0099,6.84e-4 -0.04089,-0.008 -0.03125,-0.0059 0.0096,0.0022 -0.03849,-0.01143 -0.0293,-0.0078 0.0092,0.0036 -0.03588,-0.01864 -0.02734,-0.01367 0.0036,0.0021 -0.003,-0.0031 -0.0098,-0.0078 a 0.07611145,0.07611145 0 0 0 0.08203,-0.126954 C 36.946982,10.179015 36.118023,9.4876992 35.044922,8.7460938 34.467392,8.3469712 33.862877,7.9634212 33.328125,7.7070312 33.060641,7.5787841 32.810854,7.4828007 32.582031,7.4335938 32.467336,7.4089292 32.353954,7.3929678 32.246094,7.3984375 Z m 5.554687,10.2500005 c -0.04323,0.02259 -0.01949,0.01169 0.0039,0 a 0.07611145,0.07611145 0 0 0 -0.0039,0.002 z"
           id="rect815-3-3"
           style="opacity:1;fill:#d4d4d4;fill-opacity:1;stroke:#7f7f7f;stroke-width:0.26458332;stroke-miterlimit:4;stroke-dasharray:none;stroke-dashoffset:0;stroke-opacity:1" />
        <path
           id="rect815-3"
           d="m 9.5662167,3.3279467 c 0.6874083,-0.396875 1.4796163,-0.6122301 1.7028873,-0.2255136 0.223271,0.386717 -0.35402,0.974318 -1.041428,1.371193 l -1.3748163,0.79375 c 0,0 0.936043,5.3254549 0.0195,5.8546199 l -0.713868,0.351045 -1.215185,-5.2797619 -3.111055,1.490654 c 0,0 0.545721,1.267456 0.411934,1.77183 -0.07524,0.28366 -0.555117,0.6260109 -0.555117,0.6260109 L 1.4401097,6.1864641 c 0,0 0.539854,-0.228108 0.819701,-0.16774 0.444883,0.09596 1.32665,1.239486 1.32665,1.239486 l 2.827679,-1.981475 -3.94419,-3.6565383 0.687408,-0.396875 c 0.91654,-0.52916501 5.034039,2.8983723 5.034039,2.8983723 z"
           style="opacity:1;fill:#d4d4d4;fill-opacity:1;stroke:#000000;stroke-width:0.26458332;stroke-miterlimit:4;stroke-dasharray:none;stroke-dashoffset:0;stroke-opacity:1" />
      </g>
    </g>
  </g>
</svg>
