<?xml version="1.0" encoding="UTF-8" standalone="no"?>
<svg
   xmlns:dc="http://purl.org/dc/elements/1.1/"
   xmlns:cc="http://creativecommons.org/ns#"
   xmlns:rdf="http://www.w3.org/1999/02/22-rdf-syntax-ns#"
   xmlns:svg="http://www.w3.org/2000/svg"
   xmlns="http://www.w3.org/2000/svg"
   version="1.1"
   id="svg2"
   viewBox="0 0 48 48"
   height="48"
   width="48">
  <defs
     id="defs4" />
  <metadata
     id="metadata7">
    <rdf:RDF>
      <cc:Work
         rdf:about="">
        <dc:format>image/svg+xml</dc:format>
        <dc:type
           rdf:resource="http://purl.org/dc/dcmitype/StillImage" />
        <dc:title></dc:title>
      </cc:Work>
    </rdf:RDF>
  </metadata>
  <g
     id="g1004">
    <g
       id="layer1"
       transform="translate(0,-1004.3622)">
      <g
         id="g4209"
         transform="matrix(2.0434783,0,0,2.0434783,108.47274,-1082.5541)">
        <path
           style="color:#000000;clip-rule:nonzero;display:inline;overflow:visible;visibility:visible;opacity:1;isolation:auto;mix-blend-mode:normal;color-interpolation:sRGB;color-interpolation-filters:linearRGB;solid-color:#000000;solid-opacity:1;fill:#808080;fill-opacity:1;fill-rule:nonzero;stroke:#808080;stroke-width:0.99999994;stroke-linecap:round;stroke-linejoin:round;stroke-miterlimit:4;stroke-dasharray:none;stroke-dashoffset:0;stroke-opacity:1;color-rendering:auto;image-rendering:auto;shape-rendering:auto;text-rendering:auto;enable-background:accumulate"
           d="M 0.5 0.5 L 0.5 47.5 L 47.5 47.5 L 47.5 0.5 L 0.5 0.5 z M 2 2 L 6 2 L 6 6 L 2 6 L 2 2 z M 8 2 L 40 2 L 40 46 L 8 46 L 8 2 z M 42 2 L 46 2 L 46 6 L 42 6 L 42 2 z M 2 10 L 6 10 L 6 14 L 2 14 L 2 10 z M 42 10 L 46 10 L 46 14 L 42 14 L 42 10 z M 2 18 L 6 18 L 6 22 L 2 22 L 2 18 z M 42 18 L 46 18 L 46 22 L 42 22 L 42 18 z M 2 26 L 6 26 L 6 30 L 2 30 L 2 26 z M 42 26 L 46 26 L 46 30 L 42 30 L 42 26 z M 2 34 L 6 34 L 6 38 L 2 38 L 2 34 z M 42 34 L 46 34 L 46 38 L 42 38 L 42 34 z M 2 42 L 6 42 L 6 46 L 2 46 L 2 42 z M 42 42 L 46 42 L 46 46 L 42 46 L 42 42 z "
           transform="matrix(0.48936169,0,0,0.48936169,-53.082404,1021.2569)"
           id="rect4185-6" />
      </g>
    </g>
    <path
       style="opacity:1;fill:#808080;fill-opacity:1;stroke:none;stroke-width:0.99999994;stroke-miterlimit:4;stroke-dasharray:none;stroke-dashoffset:0;stroke-opacity:1"
       d="m 16.5,16.5 15,7.5 -15,7.5 z"
       id="rect829" />
  </g>
</svg>
