<?xml version="1.0" encoding="UTF-8" standalone="no"?>
<svg
   xmlns:dc="http://purl.org/dc/elements/1.1/"
   xmlns:cc="http://creativecommons.org/ns#"
   xmlns:rdf="http://www.w3.org/1999/02/22-rdf-syntax-ns#"
   xmlns:svg="http://www.w3.org/2000/svg"
   xmlns="http://www.w3.org/2000/svg"
   width="48"
   height="48"
   viewBox="0 0 48 48"
   id="svg2"
   version="1.1">
  <defs
     id="defs4" />
  <metadata
     id="metadata7">
    <rdf:RDF>
      <cc:Work
         rdf:about="">
        <dc:format>image/svg+xml</dc:format>
        <dc:type
           rdf:resource="http://purl.org/dc/dcmitype/StillImage" />
        <dc:title></dc:title>
      </cc:Work>
    </rdf:RDF>
  </metadata>
  <g
     id="layer1"
     transform="translate(8.2104134e-7,-1004.3622)">
    <g
       id="g4209"
       transform="matrix(2.0434783,0,0,2.0434783,108.47274,-1082.5541)">
      <path
         id="rect4185-6"
         transform="matrix(0.48936169,0,0,0.48936169,-53.082404,1021.2569)"
         d="m 0.5,0.5 v 47 h 47 V 0.5 Z M 2,2 H 46 V 42 H 2 Z"
         style="color:#000000;clip-rule:nonzero;display:inline;overflow:visible;visibility:visible;opacity:1;isolation:auto;mix-blend-mode:normal;color-interpolation:sRGB;color-interpolation-filters:linearRGB;solid-color:#000000;solid-opacity:1;fill:#808080;fill-opacity:1;fill-rule:nonzero;stroke:#808080;stroke-width:0.99999994;stroke-linecap:round;stroke-linejoin:round;stroke-miterlimit:4;stroke-dasharray:none;stroke-dashoffset:0;stroke-opacity:1;color-rendering:auto;image-rendering:auto;shape-rendering:auto;text-rendering:auto;enable-background:accumulate" />
    </g>
  </g>
  <g
     transform="translate(41.201668,27.488068)"
     id="text825"
     style="font-style:normal;font-variant:normal;font-weight:bold;font-stretch:normal;font-size:40px;line-height:1.25;font-family:dejavu;-inkscape-font-specification:'dejavu Bold';letter-spacing:0px;word-spacing:0px;fill:#000000;fill-opacity:1;stroke:none"
     aria-label="?">
    <path
       id="path830"
       style="font-style:normal;font-variant:normal;font-weight:bold;font-stretch:normal;font-family:dejavu;-inkscape-font-specification:'dejavu Bold';fill:#808080;fill-opacity:1;stroke:#000000;stroke-opacity:1"
       d="M -15.033699,-0.48781776 H -22.08448 V -1.444849 q 0,-1.6015625 0.644531,-2.8320313 0.644531,-1.25 2.714844,-3.1640625 l 1.25,-1.1328125 q 1.113281,-1.015625 1.621093,-1.9140627 0.527344,-0.898437 0.527344,-1.796875 0,-1.367187 -0.9375,-2.128906 -0.9375,-0.78125 -2.617187,-0.78125 -1.582032,0 -3.417969,0.664062 -1.835938,0.644532 -3.828125,1.933594 v -6.132812 q 2.363281,-0.820313 4.316406,-1.210938 1.953125,-0.390625 3.769531,-0.390625 4.765625,0 7.265625,1.953125 2.5000005,1.933594 2.5000005,5.664063 0,1.914062 -0.7617188,3.4374997 -0.7617187,1.5039063 -2.5976567,3.2421875 l -1.25,1.1132813 q -1.328125,1.2109375 -1.738281,1.953125 -0.410156,0.7226562 -0.410156,1.6015625 z M -22.08448,2.4028072 h 7.050781 v 6.953125 h -7.050781 z" />
  </g>
</svg>
