<?xml version="1.0" encoding="UTF-8" standalone="no"?>
<svg
   xmlns:dc="http://purl.org/dc/elements/1.1/"
   xmlns:cc="http://creativecommons.org/ns#"
   xmlns:rdf="http://www.w3.org/1999/02/22-rdf-syntax-ns#"
   xmlns:svg="http://www.w3.org/2000/svg"
   xmlns="http://www.w3.org/2000/svg"
   version="1.1"
   id="svg2"
   viewBox="0 0 48 48"
   height="48"
   width="48">
  <defs
     id="defs4" />
  <metadata
     id="metadata7">
    <rdf:RDF>
      <cc:Work
         rdf:about="">
        <dc:format>image/svg+xml</dc:format>
        <dc:type
           rdf:resource="http://purl.org/dc/dcmitype/StillImage" />
        <dc:title></dc:title>
      </cc:Work>
    </rdf:RDF>
  </metadata>
  <g
     transform="translate(0,-1004.3622)"
     id="layer1">
    <g
       id="g4155">
      <g
         id="g4151">
        <path
           d="m 5.0803223,1018.1437 5.1696777,0 0,7.6404 7.626953,0 0,-7.6404 5.169678,0 0,20.0476 -5.169678,0 0,-8.4998 -7.626953,0 0,8.4998 -5.1696777,0 0,-20.0476 z"
           style="font-style:normal;font-variant:normal;font-weight:bold;font-stretch:normal;font-size:27.5px;line-height:125%;font-family:'DejaVu Sans';-inkscape-font-specification:'DejaVu Sans, Bold';text-align:start;letter-spacing:0px;word-spacing:0px;writing-mode:lr-tb;text-anchor:start;fill:#808080;fill-opacity:1;stroke:#000000;stroke-width:1;stroke-linecap:butt;stroke-linejoin:miter;stroke-miterlimit:4;stroke-dasharray:none;stroke-opacity:1"
           id="path4152" />
        <path
           d="m 42.919678,1030.6315 0,1.3696 -11.239014,0 q 0.174561,1.6919 1.221924,2.5378 1.047363,0.846 2.927246,0.846 1.517334,0 3.101807,-0.4431 1.5979,-0.4566 3.276367,-1.3697 l 0,3.7061 q -1.705322,0.6445 -3.410645,0.9668 -1.705322,0.3357 -3.410644,0.3357 -4.082032,0 -6.351319,-2.0679 -2.255859,-2.0813 -2.255859,-5.8276 0,-3.6792 2.215576,-5.7874 2.229004,-2.1081 6.123047,-2.1081 3.544922,0 5.666504,2.135 2.13501,2.135 2.13501,5.7068 z m -4.941407,-1.5979 q 0,-1.3697 -0.805664,-2.2022 -0.792236,-0.8459 -2.081298,-0.8459 -1.396485,0 -2.269288,0.7922 -0.872802,0.7788 -1.087646,2.2559 l 6.243896,0 z"
           style="font-style:normal;font-variant:normal;font-weight:bold;font-stretch:normal;font-size:27.5px;line-height:125%;font-family:'DejaVu Sans';-inkscape-font-specification:'DejaVu Sans, Bold';text-align:start;letter-spacing:0px;word-spacing:0px;writing-mode:lr-tb;text-anchor:start;fill:#808080;fill-opacity:1;stroke:#000000;stroke-width:1;stroke-linecap:butt;stroke-linejoin:miter;stroke-miterlimit:4;stroke-dasharray:none;stroke-opacity:1"
           id="path4154" />
      </g>
      <path
         id="rect4138-3-56-2"
         d="m 10.242822,1014.6049 -0.3463563,-7.5711 -2.1674341,2.1675 -4.3391407,-4.3391 -2.88991212,2.8899 4.33914092,4.3391 -2.1674341,2.1675 z"
         style="color:#000000;clip-rule:nonzero;display:inline;overflow:visible;visibility:visible;opacity:1;isolation:auto;mix-blend-mode:normal;color-interpolation:sRGB;color-interpolation-filters:linearRGB;solid-color:#000000;solid-opacity:1;fill:#808080;fill-opacity:1;fill-rule:nonzero;stroke:#000000;stroke-width:1;stroke-linecap:round;stroke-linejoin:round;stroke-miterlimit:4;stroke-dasharray:none;stroke-dashoffset:0;stroke-opacity:1;color-rendering:auto;image-rendering:auto;shape-rendering:auto;text-rendering:auto;enable-background:accumulate" />
      <path
         id="rect4138-3-56-2-9"
         d="m 37.757341,1014.6049 7.57108,-0.3464 -2.167516,-2.1673 4.339116,-4.3391 -2.889882,-2.8899 -4.339118,4.3391 -2.167515,-2.1675 z"
         style="color:#000000;clip-rule:nonzero;display:inline;overflow:visible;visibility:visible;opacity:1;isolation:auto;mix-blend-mode:normal;color-interpolation:sRGB;color-interpolation-filters:linearRGB;solid-color:#000000;solid-opacity:1;fill:#808080;fill-opacity:1;fill-rule:nonzero;stroke:#000000;stroke-width:1;stroke-linecap:round;stroke-linejoin:round;stroke-miterlimit:4;stroke-dasharray:none;stroke-dashoffset:0;stroke-opacity:1;color-rendering:auto;image-rendering:auto;shape-rendering:auto;text-rendering:auto;enable-background:accumulate" />
      <path
         id="rect4138-3-56-2-1"
         d="m 37.757341,1042.1195 0.346369,7.5711 2.167311,-2.1675 4.339118,4.3391 2.889882,-2.8899 -4.339116,-4.3391 2.167516,-2.1675 z"
         style="color:#000000;clip-rule:nonzero;display:inline;overflow:visible;visibility:visible;opacity:1;isolation:auto;mix-blend-mode:normal;color-interpolation:sRGB;color-interpolation-filters:linearRGB;solid-color:#000000;solid-opacity:1;fill:#808080;fill-opacity:1;fill-rule:nonzero;stroke:#000000;stroke-width:1;stroke-linecap:round;stroke-linejoin:round;stroke-miterlimit:4;stroke-dasharray:none;stroke-dashoffset:0;stroke-opacity:1;color-rendering:auto;image-rendering:auto;shape-rendering:auto;text-rendering:auto;enable-background:accumulate" />
      <path
         id="rect4138-3-56-2-2"
         d="m 10.242661,1042.1195 -7.57108,0.3464 2.1675154,2.1673 -4.33911762,4.3391 2.88988412,2.8899 4.3391178,-4.3391 2.1675154,2.1675 z"
         style="color:#000000;clip-rule:nonzero;display:inline;overflow:visible;visibility:visible;opacity:1;isolation:auto;mix-blend-mode:normal;color-interpolation:sRGB;color-interpolation-filters:linearRGB;solid-color:#000000;solid-opacity:1;fill:#808080;fill-opacity:1;fill-rule:nonzero;stroke:#000000;stroke-width:1;stroke-linecap:round;stroke-linejoin:round;stroke-miterlimit:4;stroke-dasharray:none;stroke-dashoffset:0;stroke-opacity:1;color-rendering:auto;image-rendering:auto;shape-rendering:auto;text-rendering:auto;enable-background:accumulate" />
    </g>
  </g>
</svg>
