<?xml version="1.0" encoding="UTF-8" standalone="no"?>
<svg
   xmlns:dc="http://purl.org/dc/elements/1.1/"
   xmlns:cc="http://creativecommons.org/ns#"
   xmlns:rdf="http://www.w3.org/1999/02/22-rdf-syntax-ns#"
   xmlns:svg="http://www.w3.org/2000/svg"
   xmlns="http://www.w3.org/2000/svg"
   version="1.1"
   id="svg2"
   viewBox="0 0 48 48"
   height="48"
   width="48">
  <defs
     id="defs4" />
  <metadata
     id="metadata7">
    <rdf:RDF>
      <cc:Work
         rdf:about="">
        <dc:format>image/svg+xml</dc:format>
        <dc:type
           rdf:resource="http://purl.org/dc/dcmitype/StillImage" />
        <dc:title></dc:title>
      </cc:Work>
    </rdf:RDF>
  </metadata>
  <g
     transform="translate(0,-1004.3622)"
     id="layer1">
    <g
       id="g4164">
      <g
         style="font-style:normal;font-weight:normal;font-size:17.33413696px;line-height:125%;font-family:sans-serif;letter-spacing:0px;word-spacing:0px;fill:#808080;fill-opacity:1;stroke:#000000;stroke-width:1;stroke-linecap:butt;stroke-linejoin:miter;stroke-miterlimit:4;stroke-dasharray:none;stroke-opacity:1"
         id="text4181-7">
        <path
           d="m 18.064941,1021.7087 q -2.363281,0 -3.665771,1.7456 -1.30249,1.7457 -1.30249,4.9146 0,3.1555 1.30249,4.9011 1.30249,1.7456 3.665771,1.7456 2.376709,0 3.6792,-1.7456 1.30249,-1.7456 1.30249,-4.9011 0,-3.1689 -1.30249,-4.9146 -1.302491,-1.7456 -3.6792,-1.7456 z m 0,-3.7463 q 4.833985,0 7.573243,2.7661 2.739257,2.7661 2.739257,7.6404 0,4.8608 -2.739257,7.6269 -2.739258,2.7662 -7.573243,2.7662 -4.820556,0 -7.573242,-2.7662 -2.7392576,-2.7661 -2.7392576,-7.6269 0,-4.8743 2.7392576,-7.6404 2.752686,-2.7661 7.573242,-2.7661 z"
           style="font-style:normal;font-variant:normal;font-weight:bold;font-stretch:normal;font-size:27.5px;line-height:125%;font-family:'DejaVu Sans';-inkscape-font-specification:'DejaVu Sans, Bold';text-align:start;writing-mode:lr-tb;text-anchor:start;fill:#808080;fill-opacity:1;stroke:#000000;stroke-width:1;stroke-miterlimit:4;stroke-dasharray:none;stroke-opacity:1"
           id="path4160" />
        <path
           d="m 35.279297,1036.1167 4.968262,0 0,2.2559 -9.036866,0 0,-2.0545 4.202881,-3.5718 q 0.819092,-0.7116 1.168213,-1.2487 0.349121,-0.5372 0.349121,-1.0743 0,-0.6713 -0.496826,-1.0876 -0.483398,-0.4163 -1.275635,-0.4163 -0.832519,0 -1.785888,0.3089 -0.95337,0.2954 -2.081299,0.9265 l 0,-2.4976 q 1.168213,-0.3625 2.255859,-0.5371 1.101074,-0.188 2.108154,-0.188 2.121582,0 3.330079,0.8728 1.208496,0.8594 1.208496,2.3499 0,0.9668 -0.483399,1.7859 -0.46997,0.8056 -1.826172,1.9604 l -2.60498,2.2156 z"
           style="font-style:normal;font-variant:normal;font-weight:bold;font-stretch:normal;font-size:27.5px;line-height:125%;font-family:'DejaVu Sans';-inkscape-font-specification:'DejaVu Sans, Bold';text-align:start;writing-mode:lr-tb;text-anchor:start;fill:#808080;fill-opacity:1;stroke:#000000;stroke-width:1;stroke-miterlimit:4;stroke-dasharray:none;stroke-opacity:1"
           id="path4162" />
      </g>
      <path
         id="rect4138-3-56-2"
         d="m 10.242822,1014.6049 -0.3463563,-7.5711 -2.1674341,2.1675 -4.3391407,-4.3391 -2.88991212,2.8899 4.33914092,4.3391 -2.1674341,2.1675 z"
         style="color:#000000;clip-rule:nonzero;display:inline;overflow:visible;visibility:visible;opacity:1;isolation:auto;mix-blend-mode:normal;color-interpolation:sRGB;color-interpolation-filters:linearRGB;solid-color:#000000;solid-opacity:1;fill:#808080;fill-opacity:1;fill-rule:nonzero;stroke:#000000;stroke-width:1;stroke-linecap:round;stroke-linejoin:round;stroke-miterlimit:4;stroke-dasharray:none;stroke-dashoffset:0;stroke-opacity:1;color-rendering:auto;image-rendering:auto;shape-rendering:auto;text-rendering:auto;enable-background:accumulate" />
      <path
         id="rect4138-3-56-2-9"
         d="m 37.757341,1014.6049 7.57108,-0.3464 -2.167516,-2.1673 4.339116,-4.3391 -2.889882,-2.8899 -4.339118,4.3391 -2.167515,-2.1675 z"
         style="color:#000000;clip-rule:nonzero;display:inline;overflow:visible;visibility:visible;opacity:1;isolation:auto;mix-blend-mode:normal;color-interpolation:sRGB;color-interpolation-filters:linearRGB;solid-color:#000000;solid-opacity:1;fill:#808080;fill-opacity:1;fill-rule:nonzero;stroke:#000000;stroke-width:1;stroke-linecap:round;stroke-linejoin:round;stroke-miterlimit:4;stroke-dasharray:none;stroke-dashoffset:0;stroke-opacity:1;color-rendering:auto;image-rendering:auto;shape-rendering:auto;text-rendering:auto;enable-background:accumulate" />
      <path
         id="rect4138-3-56-2-1"
         d="m 37.757341,1042.1195 0.346369,7.5711 2.167311,-2.1675 4.339118,4.3391 2.889882,-2.8899 -4.339116,-4.3391 2.167516,-2.1675 z"
         style="color:#000000;clip-rule:nonzero;display:inline;overflow:visible;visibility:visible;opacity:1;isolation:auto;mix-blend-mode:normal;color-interpolation:sRGB;color-interpolation-filters:linearRGB;solid-color:#000000;solid-opacity:1;fill:#808080;fill-opacity:1;fill-rule:nonzero;stroke:#000000;stroke-width:1;stroke-linecap:round;stroke-linejoin:round;stroke-miterlimit:4;stroke-dasharray:none;stroke-dashoffset:0;stroke-opacity:1;color-rendering:auto;image-rendering:auto;shape-rendering:auto;text-rendering:auto;enable-background:accumulate" />
      <path
         id="rect4138-3-56-2-2"
         d="m 10.242661,1042.1195 -7.57108,0.3464 2.1675154,2.1673 -4.33911762,4.3391 2.88988412,2.8899 4.3391178,-4.3391 2.1675154,2.1675 z"
         style="color:#000000;clip-rule:nonzero;display:inline;overflow:visible;visibility:visible;opacity:1;isolation:auto;mix-blend-mode:normal;color-interpolation:sRGB;color-interpolation-filters:linearRGB;solid-color:#000000;solid-opacity:1;fill:#808080;fill-opacity:1;fill-rule:nonzero;stroke:#000000;stroke-width:1;stroke-linecap:round;stroke-linejoin:round;stroke-miterlimit:4;stroke-dasharray:none;stroke-dashoffset:0;stroke-opacity:1;color-rendering:auto;image-rendering:auto;shape-rendering:auto;text-rendering:auto;enable-background:accumulate" />
    </g>
  </g>
</svg>
