<?xml version="1.0" encoding="UTF-8" standalone="no"?>
<svg
   xmlns:dc="http://purl.org/dc/elements/1.1/"
   xmlns:cc="http://creativecommons.org/ns#"
   xmlns:rdf="http://www.w3.org/1999/02/22-rdf-syntax-ns#"
   xmlns:svg="http://www.w3.org/2000/svg"
   xmlns="http://www.w3.org/2000/svg"
   version="1.1"
   id="svg2"
   viewBox="0 0 48 48"
   height="48"
   width="48">
  <defs
     id="defs4" />
  <metadata
     id="metadata7">
    <rdf:RDF>
      <cc:Work
         rdf:about="">
        <dc:format>image/svg+xml</dc:format>
        <dc:type
           rdf:resource="http://purl.org/dc/dcmitype/StillImage" />
        <dc:title></dc:title>
      </cc:Work>
    </rdf:RDF>
  </metadata>
  <g
     transform="translate(0,-1004.3622)"
     id="layer1">
    <g
       id="g4155">
      <g
         id="g4151"
         transform="translate(-4e-7,-5e-5)">
        <path
           d="m 8.4909678,1018.3384 5.7739252,0 7.29126,13.7501 0,-13.7501 4.901123,0 0,20.0477 -5.773926,0 -7.291259,-13.7499 0,13.7499 -4.9011232,0 0,-20.0477 z"
           style="font-style:normal;font-variant:normal;font-weight:bold;font-stretch:normal;font-size:13.4574585px;line-height:125%;font-family:'DejaVu Sans';-inkscape-font-specification:'DejaVu Sans, Bold';text-align:start;letter-spacing:0px;word-spacing:0px;writing-mode:lr-tb;text-anchor:start;fill:#808080;fill-opacity:1;stroke:#000000;stroke-width:1;stroke-linecap:butt;stroke-linejoin:miter;stroke-miterlimit:4;stroke-dasharray:none;stroke-opacity:1"
           id="path4178" />
        <path
           d="m 34.540772,1036.1301 4.968261,0 0,2.256 -9.036866,0 0,-2.0545 4.202881,-3.5718 q 0.819091,-0.7115 1.168213,-1.2488 0.349122,-0.537 0.349122,-1.0742 0,-0.6713 -0.496827,-1.0876 -0.483398,-0.4162 -1.275636,-0.4162 -0.832518,0 -1.785888,0.3087 -0.953369,0.2955 -2.081299,0.9266 l 0,-2.4976 q 1.168213,-0.3625 2.255859,-0.537 1.101074,-0.188 2.108155,-0.188 2.121582,0 3.330077,0.8728 1.208498,0.8592 1.208498,2.3498 0,0.9667 -0.483399,1.786 -0.469971,0.8055 -1.826173,1.9603 l -2.604978,2.2155 z"
           style="font-style:normal;font-variant:normal;font-weight:bold;font-stretch:normal;font-size:13.4574585px;line-height:125%;font-family:'DejaVu Sans';-inkscape-font-specification:'DejaVu Sans, Bold';text-align:start;letter-spacing:0px;word-spacing:0px;writing-mode:lr-tb;text-anchor:start;fill:#808080;fill-opacity:1;stroke:#000000;stroke-width:1;stroke-linecap:butt;stroke-linejoin:miter;stroke-miterlimit:4;stroke-dasharray:none;stroke-opacity:1"
           id="path4180" />
      </g>
      <path
         id="rect4138-3-56-2"
         d="m 10.242822,1014.6049 -0.3463562,-7.5711 -2.1674341,2.1675 -4.3391407,-4.3391 -2.889912,2.8899 4.3391408,4.3391 -2.1674341,2.1675 z"
         style="color:#000000;clip-rule:nonzero;display:inline;overflow:visible;visibility:visible;opacity:1;isolation:auto;mix-blend-mode:normal;color-interpolation:sRGB;color-interpolation-filters:linearRGB;solid-color:#000000;solid-opacity:1;fill:#808080;fill-opacity:1;fill-rule:nonzero;stroke:#000000;stroke-width:1;stroke-linecap:round;stroke-linejoin:round;stroke-miterlimit:4;stroke-dasharray:none;stroke-dashoffset:0;stroke-opacity:1;color-rendering:auto;image-rendering:auto;shape-rendering:auto;text-rendering:auto;enable-background:accumulate" />
      <path
         id="rect4138-3-56-2-9"
         d="m 37.757341,1014.6049 7.57108,-0.3464 -2.167515,-2.1673 4.339115,-4.3391 -2.889882,-2.8899 -4.339118,4.3391 -2.167515,-2.1675 z"
         style="color:#000000;clip-rule:nonzero;display:inline;overflow:visible;visibility:visible;opacity:1;isolation:auto;mix-blend-mode:normal;color-interpolation:sRGB;color-interpolation-filters:linearRGB;solid-color:#000000;solid-opacity:1;fill:#808080;fill-opacity:1;fill-rule:nonzero;stroke:#000000;stroke-width:1;stroke-linecap:round;stroke-linejoin:round;stroke-miterlimit:4;stroke-dasharray:none;stroke-dashoffset:0;stroke-opacity:1;color-rendering:auto;image-rendering:auto;shape-rendering:auto;text-rendering:auto;enable-background:accumulate" />
      <path
         id="rect4138-3-56-2-1"
         d="m 37.757341,1042.1195 0.346369,7.5711 2.167311,-2.1675 4.339118,4.3391 2.889882,-2.8899 -4.339115,-4.3391 2.167515,-2.1675 z"
         style="color:#000000;clip-rule:nonzero;display:inline;overflow:visible;visibility:visible;opacity:1;isolation:auto;mix-blend-mode:normal;color-interpolation:sRGB;color-interpolation-filters:linearRGB;solid-color:#000000;solid-opacity:1;fill:#808080;fill-opacity:1;fill-rule:nonzero;stroke:#000000;stroke-width:1;stroke-linecap:round;stroke-linejoin:round;stroke-miterlimit:4;stroke-dasharray:none;stroke-dashoffset:0;stroke-opacity:1;color-rendering:auto;image-rendering:auto;shape-rendering:auto;text-rendering:auto;enable-background:accumulate" />
      <path
         id="rect4138-3-56-2-2"
         d="m 10.242661,1042.1195 -7.5710799,0.3464 2.1675154,2.1673 -4.3391175,4.3391 2.889884,2.8899 4.3391178,-4.3391 2.1675154,2.1675 z"
         style="color:#000000;clip-rule:nonzero;display:inline;overflow:visible;visibility:visible;opacity:1;isolation:auto;mix-blend-mode:normal;color-interpolation:sRGB;color-interpolation-filters:linearRGB;solid-color:#000000;solid-opacity:1;fill:#808080;fill-opacity:1;fill-rule:nonzero;stroke:#000000;stroke-width:1;stroke-linecap:round;stroke-linejoin:round;stroke-miterlimit:4;stroke-dasharray:none;stroke-dashoffset:0;stroke-opacity:1;color-rendering:auto;image-rendering:auto;shape-rendering:auto;text-rendering:auto;enable-background:accumulate" />
    </g>
  </g>
</svg>
