<?xml version="1.0" encoding="UTF-8" standalone="no"?>
<svg
   xmlns:dc="http://purl.org/dc/elements/1.1/"
   xmlns:cc="http://creativecommons.org/ns#"
   xmlns:rdf="http://www.w3.org/1999/02/22-rdf-syntax-ns#"
   xmlns:svg="http://www.w3.org/2000/svg"
   xmlns="http://www.w3.org/2000/svg"
   width="48"
   height="48"
   viewBox="0 0 48 48"
   id="svg2"
   version="1.1">
  <defs
     id="defs4" />
  <metadata
     id="metadata7">
    <rdf:RDF>
      <cc:Work
         rdf:about="">
        <dc:format>image/svg+xml</dc:format>
        <dc:type
           rdf:resource="http://purl.org/dc/dcmitype/StillImage" />
        <dc:title></dc:title>
      </cc:Work>
    </rdf:RDF>
  </metadata>
  <g
     id="layer1"
     transform="translate(0,-1004.3622)">
    <g
       id="g4139"
       transform="matrix(2.0436107,0,0,2.0534353,-0.52330629,-1107.8968)">
      <path
         id="path4136"
         d="m 6.2538289,1029.8645 c -3.1733111,0 -5.59215288,3.1331 -5.74579558,5.9188 -0.35093024,6.3627 11.55280768,14.963 11.55280768,14.963 0,0 11.795808,-8.6273 11.430375,-14.963 -0.160649,-2.7852 -2.572482,-5.9188 -5.745796,-5.9188 -3.17331,0 -5.684579,4.2527 -5.684579,4.2527 0,0 -2.6682102,-4.0423 -5.8070121,-4.2527 z"
         style="color:#000000;clip-rule:nonzero;display:inline;overflow:visible;visibility:visible;opacity:1;isolation:auto;mix-blend-mode:normal;color-interpolation:sRGB;color-interpolation-filters:linearRGB;solid-color:#000000;solid-opacity:1;fill:none;fill-opacity:1;fill-rule:nonzero;stroke:#808080;stroke-width:0.48815799;stroke-linecap:butt;stroke-linejoin:miter;stroke-miterlimit:4;stroke-dasharray:none;stroke-dashoffset:0;stroke-opacity:1;color-rendering:auto;image-rendering:auto;shape-rendering:auto;text-rendering:auto;enable-background:accumulate" />
      <g
         transform="translate(0,0.88388453)"
         style="stroke-width:1;stroke-miterlimit:4;stroke-dasharray:none"
         id="g4136">
        <g
           transform="matrix(1,0,0,0.80840173,0,199.3316)"
           id="g4157" />
      </g>
    </g>
  </g>
  <path
     id="path4136-5"
     d="M 11.757,3.4182978 C 5.5482326,3.4182978 1.3157716,9.5765706 1.0151606,15.05201 0.32854551,27.558232 24.11906,44.462574 24.11906,44.462574 c 0,0 23.578935,-16.957412 22.86394,-29.410564 C 46.668685,9.5775532 41.949773,3.4182978 35.741,3.4182978 c -6.920629,0 -11.62194,9.3587022 -11.62194,9.3587022 0,0 -5.518979,-8.8978882 -12.36206,-9.3587022 z"
     style="color:#000000;clip-rule:nonzero;display:inline;overflow:visible;visibility:visible;opacity:1;isolation:auto;mix-blend-mode:normal;color-interpolation:sRGB;color-interpolation-filters:linearRGB;solid-color:#000000;solid-opacity:1;fill:#d40000;fill-opacity:1;fill-rule:nonzero;stroke:#000000;stroke-width:1;stroke-linecap:butt;stroke-linejoin:miter;stroke-miterlimit:4;stroke-dasharray:none;stroke-dashoffset:0;stroke-opacity:1;color-rendering:auto;image-rendering:auto;shape-rendering:auto;text-rendering:auto;enable-background:accumulate" />
  <g
     style="stroke-width:1.02312243"
     transform="matrix(0.97865996,0,0,0.97614194,58.762886,-0.27688178)"
     id="g854">
    <path
       style="fill:none;fill-opacity:1;fill-rule:evenodd;stroke:#808080;stroke-width:4.09248972;stroke-linecap:round;stroke-linejoin:round;stroke-miterlimit:4;stroke-dasharray:none;stroke-opacity:1"
       d="m -57.971515,25.731734 h 10.667612 l 6.826379,-9.9915 6.326007,18.26 5.825614,-8.2685 h 15.255612"
       id="path4137-6-0" />
    <path
       style="fill:none;fill-opacity:1;fill-rule:evenodd;stroke:#000000;stroke-width:2.04624486;stroke-linecap:round;stroke-linejoin:round;stroke-miterlimit:4;stroke-dasharray:none;stroke-opacity:1"
       d="M -57.971516,25.731 H -47.304 l 6.826476,-9.991105 6.326007,18.260339 L -28.326,25.731 h 15.255709"
       id="path4137-7" />
  </g>
</svg>
