<?xml version="1.0" encoding="UTF-8" standalone="no"?>
<!-- Created with Inkscape (http://www.inkscape.org/) -->

<svg
   xmlns:dc="http://purl.org/dc/elements/1.1/"
   xmlns:cc="http://creativecommons.org/ns#"
   xmlns:rdf="http://www.w3.org/1999/02/22-rdf-syntax-ns#"
   xmlns:svg="http://www.w3.org/2000/svg"
   xmlns="http://www.w3.org/2000/svg"
   xmlns:sodipodi="http://sodipodi.sourceforge.net/DTD/sodipodi-0.dtd"
   xmlns:inkscape="http://www.inkscape.org/namespaces/inkscape"
   width="24"
   height="24"
   id="svg2"
   version="1.1"
   inkscape:version="0.48.4 r9939"
   sodipodi:docname="maximum.svg">
  <defs
     id="defs4" />
  <sodipodi:namedview
     id="base"
     pagecolor="#ffffff"
     bordercolor="#666666"
     borderopacity="1.0"
     inkscape:pageopacity="0.0"
     inkscape:pageshadow="2"
     inkscape:zoom="23.708333"
     inkscape:cx="12"
     inkscape:cy="12.02109"
     inkscape:document-units="px"
     inkscape:current-layer="layer1"
     showgrid="false"
     inkscape:window-width="1366"
     inkscape:window-height="748"
     inkscape:window-x="-2"
     inkscape:window-y="-3"
     inkscape:window-maximized="1" />
  <metadata
     id="metadata7">
    <rdf:RDF>
      <cc:Work
         rdf:about="">
        <dc:format>image/svg+xml</dc:format>
        <dc:type
           rdf:resource="http://purl.org/dc/dcmitype/StillImage" />
        <dc:title></dc:title>
      </cc:Work>
    </rdf:RDF>
  </metadata>
  <g
     inkscape:label="Camada 1"
     inkscape:groupmode="layer"
     id="layer1"
     transform="translate(0,-1028.3622)">
    <path
       style="fill:#1a1a1a;fill-rule:evenodd;stroke:#000000;stroke-width:1px;stroke-linecap:butt;stroke-linejoin:miter;stroke-opacity:1"
       d="m 2.4435586,1041.2378 c -0.6609274,-0.6609 -0.6609274,-1.7256 0,-2.3865 l 0.088388,-0.088 c 0.6609274,-0.6609 1.725558,-0.6609 2.3864854,0 l 7.093166,7.0932 7.181553,-7.1816 c 0.660927,-0.6609 1.725558,-0.6609 2.386485,0 l 0.110485,0.1105 c 0.660928,0.6609 0.660928,1.7256 0,2.3865 l -8.374795,8.3748 -0.0442,0.044 c -0.01589,0.016 -0.02785,0.029 -0.04419,0.044 -0.660927,0.6609 -1.725558,0.6609 -2.386485,0 l -8.3968938,-8.3969 z"
       id="rect2985"
       inkscape:connector-curvature="0" />
    <path
       style="fill:#1a1a1a;fill-rule:evenodd;stroke:#000000;stroke-width:1px;stroke-linecap:butt;stroke-linejoin:miter;stroke-opacity:1"
       d="m 2.6508842,1033.1754 c -0.6609274,-0.6609 -0.6609274,-1.7256 0,-2.3865 l 0.088388,-0.088 c 0.6609274,-0.6609 1.7255583,-0.6609 2.3864853,0 l 7.0931655,7.0932 7.181553,-7.1816 c 0.660927,-0.6609 1.725558,-0.6609 2.386485,0 l 0.110485,0.1105 c 0.660928,0.6609 0.660928,1.7256 0,2.3865 l -8.374795,8.3748 -0.0442,0.044 c -0.01589,0.016 -0.02785,0.029 -0.04419,0.044 -0.660927,0.6609 -1.725558,0.6609 -2.386484,0 l -8.3968942,-8.3969 z"
       id="rect2985-6"
       inkscape:connector-curvature="0" />
  </g>
</svg>
