<?xml version="1.0" encoding="UTF-8" standalone="no"?>
<!-- Created with Inkscape (http://www.inkscape.org/) -->

<svg
   width="405.71429"
   height="405.71429"
   id="svg3958"
   version="1.1"
   inkscape:version="1.4 (e7c3feb1, 2024-10-09)"
   sodipodi:docname="org.subsurface_divelog.Subsurface.svg"
   xmlns:inkscape="http://www.inkscape.org/namespaces/inkscape"
   xmlns:sodipodi="http://sodipodi.sourceforge.net/DTD/sodipodi-0.dtd"
   xmlns:xlink="http://www.w3.org/1999/xlink"
   xmlns="http://www.w3.org/2000/svg"
   xmlns:svg="http://www.w3.org/2000/svg"
   xmlns:rdf="http://www.w3.org/1999/02/22-rdf-syntax-ns#"
   xmlns:cc="http://creativecommons.org/ns#"
   xmlns:dc="http://purl.org/dc/elements/1.1/">
  <defs
     id="defs3960">
    <linearGradient
       inkscape:collect="always"
       xlink:href="#linearGradient3974"
       id="linearGradient3136"
       gradientUnits="userSpaceOnUse"
       x1="-284.28873"
       y1="258.56543"
       x2="-284.28873"
       y2="639.42023"
       gradientTransform="matrix(1,0,0,0.90527227,0,61.782949)" />
    <linearGradient
       id="linearGradient3974">
      <stop
         id="stop3976"
         offset="0"
         style="stop-color:#3465a4;stop-opacity:1;" />
      <stop
         id="stop3978"
         offset="1"
         style="stop-color:#204a87;stop-opacity:1;" />
    </linearGradient>
  </defs>
  <sodipodi:namedview
     id="base"
     pagecolor="#ffffff"
     bordercolor="#666666"
     borderopacity="1.0"
     inkscape:pageopacity="0.0"
     inkscape:pageshadow="2"
     inkscape:zoom="0.72414998"
     inkscape:cx="216.80592"
     inkscape:cy="247.87683"
     inkscape:document-units="px"
     inkscape:current-layer="layer1"
     showgrid="false"
     fit-margin-top="0"
     fit-margin-left="0"
     fit-margin-right="0"
     fit-margin-bottom="0"
     inkscape:window-width="1344"
     inkscape:window-height="764"
     inkscape:window-x="2358"
     inkscape:window-y="406"
     inkscape:window-maximized="0"
     inkscape:showpageshadow="2"
     inkscape:pagecheckerboard="0"
     inkscape:deskcolor="#d1d1d1" />
  <metadata
     id="metadata3963">
    <rdf:RDF>
      <cc:Work
         rdf:about="">
        <dc:format>image/svg+xml</dc:format>
        <dc:type
           rdf:resource="http://purl.org/dc/dcmitype/StillImage" />
        <dc:title />
      </cc:Work>
    </rdf:RDF>
  </metadata>
  <g
     inkscape:label="Livello 1"
     inkscape:groupmode="layer"
     id="layer1"
     transform="translate(-465.71426,-352.36218)"
     style="display:inline">
    <g
       transform="translate(2577.3448,387.46589)"
       id="g3921"
       inkscape:export-filename="/home/archuser/icon.png"
       inkscape:export-xdpi="28.389999"
       inkscape:export-ydpi="28.389999"
       style="display:inline">
      <g
         transform="translate(-2082.771,-287.46589)"
         id="g3120"
         style="display:inline">
        <g
           id="g3122"
           transform="translate(456.85475)"
           style="display:inline">
          <path
             sodipodi:nodetypes="cccccccccc"
             style="display:inline;fill:#eeeeec;fill-opacity:1;stroke:none"
             d="m -130.28125,258.125 c -104.77403,1.0652 -209.59903,-0.92051 -314.34375,1.09375 -23.10839,2.95091 -36.27301,28.27228 -35.28125,50.125 0.81443,99.15252 -0.56392,198.32852 0.625,297.46875 0.30195,14.95108 4.84948,28.32045 16.40625,36.46875 10.96614,8.5872 25.54253,8.88232 38.96873,8.77143 101.68599,-0.47099 203.39121,1.16795 305.06252,-0.95893 22.577086,-4.84975 32.841992,-30.29799 32.838848,-52.03124 -0.699743,-102.76237 1.456849,-205.59796 -1.151348,-308.31251 -4.410414,-19.17914 -23.46032,-33.34826 -43.125,-32.625 z"
             id="path3138"
             inkscape:connector-curvature="0" />
          <path
             inkscape:connector-curvature="0"
             id="path3130"
             d="m -479.90625,341.82327 c 0.81443,89.76002 -0.56392,179.54131 0.625,269.29021 0.125,13.08037 4.84948,25.63772 16.40625,33.01415 10.96614,7.77375 24.5922,8.08947 38.96873,7.94053 101.68599,-0.42638 203.39121,1.05731 305.06252,-0.8681 22.577086,-4.39034 32.929182,-27.27006 32.838848,-47.10243 -0.699743,-93.02793 1.456849,-186.12214 -1.151348,-279.10677 -106.30835,47.37206 -329.2465,-33.61389 -392.75,16.83241 z"
             style="display:inline;fill:url(#linearGradient3136);fill-opacity:1;stroke:none;stroke-width:0.951458"
             sodipodi:nodetypes="cccccccc" />
        </g>
      </g>
      <path
         style="display:inline;fill:#3465a4;stroke-width:0.859042"
         d="m -1926.6882,79.492702 c -8.1443,-0.677922 -3.1081,1.659929 1.3191,3.877123 3.5453,2.475599 9.1624,3.875964 11.455,6.99383 -0.6252,5.20791 -1.2897,10.485155 -1.8742,15.653525 -2.7882,-0.37678 -11.981,-6.172508 -9.5301,-2.23133 5.3434,3.53795 0.3355,7.8578 -1.1359,3.07338 1.711,-6.993247 -5.2285,-1.37651 -8.8332,-0.64369 -3.1899,2.05463 -2.8012,3.06428 -8.1012,1.90676 -3.6106,0.20306 -9.2458,-2.13624 -11.6815,-0.54011 -0.8046,4.5862 0.896,10.35728 -4.0324,12.94913 -4.1352,4.51289 -10.7897,7.56146 -10.9621,14.42596 -4.5589,18.48189 -9.4548,36.88466 -13.5552,55.47513 7.0106,1.79878 14.2131,5.05406 21.098,5.9645 7.311,-2.89988 7.0922,-11.82522 10.3852,-17.68298 -0.8191,18.3707 7.6295,35.22734 9.3093,53.21269 1.5118,5.02607 -1.959,7.28183 -5.9879,9.21574 3.9036,5.10495 -5.8107,-2.80897 -5.232,4.49683 -4.0492,7.62338 -7.0132,16.02233 -11.7552,23.15634 -5.3856,5.38556 -10.7711,10.77111 -16.1567,16.15667 1.9437,9.59796 5.4257,19.0557 4.0502,28.97651 -0.016,6.914 -0.7672,14.0355 -0.3545,20.82122 2.3455,3.42267 3.6592,8.77058 8.9116,6.97027 4.8869,0.97318 8.5367,-0.69362 10.9099,-5.09041 3.9343,-2.71516 3.3723,-6.10745 1.0893,-9.78575 -3.0121,-12.14304 -3.1372,-24.7373 -4.3272,-37.16702 5.4386,-8.51759 9.6707,-17.97855 15.8777,-25.89141 6.9344,-7.05673 14.7051,-13.68499 21.1256,-21.00593 1.1424,-9.58871 2.2922,-19.17637 3.3916,-28.76995 9.6567,4.64441 18.101,11.1905 26.618,17.56604 0.3014,6.38479 -1.3243,13.18942 2.6335,18.77663 5.6307,11.71099 10.6323,23.74266 14.1607,36.2605 1.1476,3.56802 3.3916,6.58584 5.8241,9.40286 10.3238,-2.1674 19.6985,-6.92513 29.4015,-10.7361 15.7273,-5.57313 31.8482,-9.93832 47.833,-14.71243 0.1169,-3.09265 5.8772,-10.37046 0.3041,-9.40286 -12.3937,-0.49632 -24.7436,0.8896 -36.7929,3.76582 4.3948,5.46449 -5.2133,-1.64586 -7.7705,2.79375 -8.2935,3.13747 -16.6279,7.36054 -25.771,6.81962 -3.3693,-9.62771 -9.0591,-18.66662 -9.1341,-29.13043 -0.9581,-6.9128 -1.3399,-14.0644 -2.6545,-20.83103 -10.5181,-14.08689 -20.5898,-28.58613 -34.1264,-39.88028 6.8467,3.5711 2.9927,-3.54201 4.1718,-5.58093 6.2387,2.83428 6.3118,-0.74615 4.6906,-6.05779 -1.7604,-4.00252 4.3303,-3.03127 5.9202,-5.85716 0.936,-0.90831 1.6285,-2.15469 1.614,-3.48513 3.231,0.29915 7.382,-4.29473 10.945,-5.78066 2.5271,-3.48192 1.6606,-9.21496 2.8319,-13.58643 1.2616,-6.11802 1.3684,-12.78493 5.403,-17.8935 -4.2083,-4.11495 -8.2488,-9.0569 -14.1042,-10.78288 2.4744,-3.6626 7.6939,-6.59753 5.1526,-11.56418 -0.9131,-7.571784 -3.965,-14.768225 -9.5266,-20.129541 -5.6934,0.546394 -11.7655,2.654758 -17.2343,2.271032 -4.6367,-3.253066 -9.5978,-7.889188 -15.7927,-6.761949 z m -9.1455,31.600158 c 1.0036,2.35236 -9.8649,8.08411 -2.9812,2.42171 0.8229,-0.2384 2.3608,-3.81606 2.9812,-2.42171 z m 42.687,13.96395 c 2.6099,0.70008 0.4281,5.01248 1.1463,6.87672 4.9663,-4.42599 1.7582,5.86603 2.6663,8.74793 -2.2074,0.91719 -3.5756,-1.27736 -3.0431,-3.4497 -0.4646,-4.01189 -1.0096,-8.12023 -1.4711,-12.17495 z m -8.7947,29.612 c 1.7853,1.30144 3.1837,3.05984 4.4676,4.84176 -3.482,0.65387 -5.9887,-0.0927 -4.7717,-3.88277 0.075,-0.32451 0.1365,-0.67827 0.3041,-0.95899 z"
         id="path3132"
         inkscape:connector-curvature="0" />
      <path
         sodipodi:nodetypes="ccccccccccccccccccssccsscccccccccccccccccccccccccccccccccccccccsccccccccccscccccccsscccscccccccccccccccccsccccccsscccsssccccccccscccccccccccscccccscccccccccsscccs"
         style="display:inline;fill:#eeeeec;stroke-width:0.859042"
         d="m -1968.2415,343.22492 h -4.8642 l -1.9418,-3.14226 -1.9424,-3.14224 0.4308,-14.91309 0.4306,-14.91308 -2.0963,-9.345 -2.0962,-9.34501 8.4205,-8.42064 8.4207,-8.42063 6.0465,-12.4907 6.0471,-12.49072 3.8332,1.47092 3.8331,1.47093 -1.5199,-2.4594 -1.5205,-2.45939 2.7189,-1.68013 2.7186,-1.68013 v -6.39878 c 0,-3.51933 -1.9981,-13.37873 -4.4403,-21.90977 -2.4422,-8.53103 -4.5485,-19.42296 -4.6811,-24.20428 l -0.2408,-8.69331 h -1.7161 c -0.9441,0 -2.5442,3.29809 -3.5559,7.32908 -1.0117,4.031 -3.0743,8.09235 -4.5839,9.02523 l -2.7444,1.69614 -9.2939,-2.85238 -9.294,-2.85239 1.227,-5.50412 c 0.6753,-3.02727 3.9441,-16.33733 7.2649,-29.5779 l 6.0381,-24.07379 6.4902,-6.03415 6.4903,-6.03416 0.3652,-4.84776 0.3651,-4.84776 5.4858,0.62827 c 3.0175,0.34555 6.5756,0.72858 7.9068,0.85118 l 2.4208,0.2229 -4.6009,5.08417 -4.6016,5.08418 3.518,2.03183 3.5179,2.03184 -1.9891,-2.19507 -1.9891,-2.19508 5.3775,-3.76653 5.3771,-3.76652 -1.3665,-2.21156 -1.367,-2.21155 3.997,-1.53377 3.9971,-1.53377 v 2.59091 2.59092 h 4.1702 4.1697 l -1.6339,-2.64423 -1.6344,-2.64423 4.1511,1.59298 4.1516,1.59297 0.3048,-2.29232 c 0.168,-1.26079 0.6975,-5.60184 1.1772,-9.646806 l 0.8723,-7.354468 -7.1956,-3.906613 -7.1957,-3.906604 2.8324,-0.107093 c 1.5579,-0.05891 5.1378,1.578924 7.956,3.639604 l 5.1238,3.746698 8.2173,-1.333436 8.2172,-1.333436 3.3546,4.042021 c 1.8446,2.223116 3.9414,7.278055 4.6582,11.233213 l 1.3041,7.19117 -3.4451,4.17515 -3.4452,4.17514 3.3911,1.14127 c 1.8653,0.6277 5.1867,2.93637 7.3808,5.13039 l 3.9892,3.98911 -1.6032,2.5937 c -0.8818,1.42653 -2.3974,8.12026 -3.3681,14.87496 l -1.7656,12.28125 -4.8376,2.96472 -4.8376,2.96475 -3.4816,-4.68101 c -1.9152,-2.57456 -4.2519,-4.68101 -5.1929,-4.68101 -0.9415,0 -1.7114,1.80553 -1.7114,4.01229 v 4.0123 h 4.0122 4.0121 v 2.75881 c 0,1.51735 -1.8269,3.45984 -4.0595,4.31665 l -4.0594,1.55784 0.7157,4.37665 0.7163,4.37666 -3.3437,-0.66871 -3.3436,-0.66872 0.6689,3.34358 0.6683,3.34358 -4.012,-0.79769 -4.0122,-0.79771 8.4743,7.48486 c 4.6612,4.11667 13.2286,13.86109 19.0395,21.65426 l 10.5647,14.1694 1.7151,14.59144 1.7151,14.59143 4.2783,10.69341 4.279,10.69342 h 5.0051 c 2.7528,0 9.8418,-1.93525 15.7531,-4.30057 l 10.7484,-4.30055 4.1568,1.59505 4.1561,1.59506 -1.4325,-2.31855 -1.4331,-2.31855 8.3155,-1.66311 c 4.5734,-0.91471 12.4781,-1.66311 17.5659,-1.66311 h 9.2508 l -1.1085,3.34358 -1.108,3.34358 -24.377,7.18212 c -13.4076,3.95018 -27.0191,8.59615 -30.2483,10.3244 -3.2292,1.72825 -9.2524,4.11179 -13.3841,5.29678 l -7.5124,2.15452 -2.4454,-3.11688 c -1.3446,-1.7143 -3.2443,-6.45908 -4.2202,-10.54399 -0.9764,-4.0849 -4.7533,-13.93821 -8.3936,-21.89624 l -6.6181,-14.46913 v -6.72243 -6.72242 l -8.6937,-6.48765 c -4.781,-3.5682 -11.5309,-7.95388 -14.9989,-9.74595 l -6.3055,-3.25831 -3.0565,3.31508 -3.0561,3.31508 3.2277,-1.81614 3.2277,-1.81613 -1.6703,14.12933 -1.6702,14.12932 -11.1906,10.88175 -11.1901,10.88176 -7.3241,12.49681 -7.3235,12.49679 1.3145,16.74441 c 0.7229,9.20942 2.1686,18.86619 3.2126,21.45948 l 1.8986,4.71508 -3.3016,3.97823 -3.3015,3.97823 z m 77.741,-197.93995 h 2.6747 v -6.84502 -6.84503 l 3.0883,1.90859 3.0883,1.90858 -1.9356,-3.13178 -1.9356,-3.13179 -2.4901,1.53893 -2.49,1.53893 v -2.83273 c 0,-1.558 -1.1315,-2.83273 -2.5146,-2.83273 h -2.5145 l 0.8718,7.35588 c 0.48,4.04573 1.0096,8.25865 1.1771,9.36202 0.168,1.10339 1.509,2.00615 2.9802,2.00615 z"
         id="path3134"
         inkscape:connector-curvature="0" />
    </g>
  </g>
</svg>
