<?xml version="1.0" encoding="UTF-8" standalone="no"?>
<!-- Created with Inkscape (http://www.inkscape.org/) -->

<svg
   xmlns:dc="http://purl.org/dc/elements/1.1/"
   xmlns:cc="http://creativecommons.org/ns#"
   xmlns:rdf="http://www.w3.org/1999/02/22-rdf-syntax-ns#"
   xmlns:svg="http://www.w3.org/2000/svg"
   xmlns="http://www.w3.org/2000/svg"
   xmlns:sodipodi="http://sodipodi.sourceforge.net/DTD/sodipodi-0.dtd"
   xmlns:inkscape="http://www.inkscape.org/namespaces/inkscape"
   width="256"
   height="256"
   id="svg3838"
   version="1.1"
   inkscape:version="0.48.4 r9939"
   sodipodi:docname="Neues Dokument 7">
  <defs
     id="defs3840" />
  <sodipodi:namedview
     id="base"
     pagecolor="#ffffff"
     bordercolor="#666666"
     borderopacity="1.0"
     inkscape:pageopacity="0.0"
     inkscape:pageshadow="2"
     inkscape:zoom="0.98994949"
     inkscape:cx="33.080739"
     inkscape:cy="132.08746"
     inkscape:document-units="px"
     inkscape:current-layer="layer1"
     showgrid="false"
     inkscape:window-width="1920"
     inkscape:window-height="1060"
     inkscape:window-x="1917"
     inkscape:window-y="-3"
     inkscape:window-maximized="1" />
  <metadata
     id="metadata3843">
    <rdf:RDF>
      <cc:Work
         rdf:about="">
        <dc:format>image/svg+xml</dc:format>
        <dc:type
           rdf:resource="http://purl.org/dc/dcmitype/StillImage" />
        <dc:title></dc:title>
      </cc:Work>
    </rdf:RDF>
  </metadata>
  <g
     inkscape:label="Ebene 1"
     inkscape:groupmode="layer"
     id="layer1"
     transform="translate(0,-796.36218)">
    <path
       style="fill:#009aff;fill-opacity:1;stroke:#bebebe;stroke-width:6.52823304999999987;stroke-linecap:butt;stroke-linejoin:miter;stroke-miterlimit:4;stroke-opacity:1;stroke-dasharray:none"
       d="m 3.8355452,827.43445 c 18.0403128,23.04384 34.6170948,48.35081 45.4644808,77.56 14.699861,49.43778 21.075276,130.56465 70.722524,130.56465 35.82631,0 76.39924,-153.38199 131.14189,-208.12465"
       id="path3848"
       inkscape:connector-curvature="0"
       sodipodi:nodetypes="cccc" />
    <g
       style="font-size:233.09231567px;font-style:normal;font-variant:normal;font-weight:normal;font-stretch:normal;line-height:125%;letter-spacing:0px;word-spacing:0px;fill:#333333;fill-opacity:1;stroke:none;font-family:Liberation Sans;-inkscape-font-specification:Liberation Sans"
       id="text4358"
       transform="matrix(1.2570811,0,0,1.2570811,-32.90638,-237.63608)">
      <path
         d="m 195.09371,960.32762 c -1.4e-4,14.79593 -5.80468,26.25325 -17.41364,34.37201 -11.53332,8.11877 -27.8088,12.17817 -48.82646,12.17817 -39.07639,0 -61.725474,-13.58187 -67.947322,-40.74564 l 21.055702,-4.21114 c 2.428011,9.63634 7.587601,16.73078 15.478787,21.28334 7.891093,4.47672 18.627593,6.71507 32.209533,6.71506 14.03704,1e-5 24.84942,-2.39009 32.43716,-7.17032 7.6634,-4.85607 11.49516,-11.9505 11.49528,-21.28333 -1.2e-4,-5.23543 -1.21415,-9.4845 -3.64207,-12.74724 -2.35228,-3.26263 -5.69084,-5.95624 -10.01568,-8.08084 -4.32506,-2.12447 -9.48465,-3.90756 -15.47879,-5.34928 -5.99432,-1.44159 -12.6335,-2.99705 -19.91756,-4.6664 -12.67142,-2.80735 -22.30771,-5.61478 -28.908907,-8.42228 -6.52541,-2.80735 -11.685,-5.91828 -15.478787,-9.3328 -3.793846,-3.49022 -6.715084,-7.5496 -8.763724,-12.17816 -1.972806,-4.62836 -2.959198,-9.9397 -2.95918,-15.93405 -1.8e-5,-13.7335 5.235449,-24.31824 15.706416,-31.75428 10.546776,-7.43572 25.608222,-11.15366 45.184402,-11.15383 18.21024,1.7e-4 32.13354,2.80759 41.76996,8.42228 9.63617,5.53913 16.38916,15.02367 20.259,28.45366 l -21.39715,3.75588 c -2.35228,-8.49803 -6.82899,-14.64401 -13.43012,-18.43797 -6.60135,-3.86955 -15.74445,-5.8044 -27.42932,-5.80454 -12.82318,1.4e-4 -22.61123,2.12468 -29.364171,6.37361 -6.753043,4.24922 -10.129539,10.58489 -10.1295,19.00704 -3.9e-5,4.93209 1.289858,9.02941 3.869697,12.29198 2.655628,3.18692 6.449444,5.91846 11.381464,8.19465 4.9319,2.20052 14.75789,4.93207 29.47798,8.19465 4.93188,1.13824 9.8259,2.31433 14.68208,3.52826 4.93187,1.13823 9.6362,2.54194 14.11302,4.21114 4.47659,1.59349 8.64978,3.49039 12.5196,5.69073 3.94545,2.20049 7.35988,4.8941 10.24332,8.08084 2.88316,3.18687 5.12151,6.94275 6.71506,11.26764 1.66914,4.32501 2.50378,9.40873 2.50392,15.25116"
         id="path4382"
         inkscape:connector-curvature="0" />
    </g>
  </g>
</svg>
