<?xml version="1.0" standalone="no"?>
<!DOCTYPE svg PUBLIC "-//W3C//DTD SVG 20010904//EN"
 "http://www.w3.org/TR/2001/REC-SVG-20010904/DTD/svg10.dtd">
<svg version="1.0" xmlns="http://www.w3.org/2000/svg"
 width="500.000000pt" height="500.000000pt" viewBox="0 0 500.000000 500.000000"
 preserveAspectRatio="xMidYMid meet">

<g transform="translate(0.000000,500.000000) scale(0.100000,-0.100000)"
fill="#000000" stroke="none">
<path d="M506 4979 c18 -20 327 -309 674 -629 81 -74 234 -216 341 -315 107
-99 313 -291 458 -425 146 -135 335 -310 421 -390 87 -80 213 -196 281 -259
68 -63 183 -169 254 -236 112 -105 472 -438 740 -685 45 -41 198 -183 341
-315 142 -132 351 -325 464 -429 113 -105 266 -246 340 -315 74 -69 145 -135
158 -145 l22 -19 0 2091 0 2092 -2257 0 -2256 0 19 -21z"/>
<path d="M0 2102 l0 -2102 2272 0 c2207 0 2272 1 2253 18 -11 11 -56 52 -100
92 -44 41 -109 101 -145 135 -36 33 -182 168 -325 300 -381 352 -543 502 -605
560 -30 29 -210 195 -400 370 -190 175 -347 321 -350 325 -5 5 -372 345 -675
625 -422 389 -667 616 -725 670 -36 34 -99 93 -140 130 -41 38 -131 121 -200
185 -201 188 -814 753 -838 774 l-22 19 0 -2101z"/>
</g>
</svg>
