<?xml version="1.0" encoding="UTF-8" standalone="no"?>
<!-- Created with Inkscape (http://www.inkscape.org/) -->

<svg
   xmlns:dc="http://purl.org/dc/elements/1.1/"
   xmlns:cc="http://creativecommons.org/ns#"
   xmlns:rdf="http://www.w3.org/1999/02/22-rdf-syntax-ns#"
   xmlns:svg="http://www.w3.org/2000/svg"
   xmlns="http://www.w3.org/2000/svg"
   xmlns:xlink="http://www.w3.org/1999/xlink"
   xmlns:sodipodi="http://sodipodi.sourceforge.net/DTD/sodipodi-0.dtd"
   xmlns:inkscape="http://www.inkscape.org/namespaces/inkscape"
   width="405.71429"
   height="405.71429"
   id="svg3958"
   version="1.1"
   inkscape:version="0.91 r13725"
   sodipodi:docname="subsurface-mobile-icon.svg">
  <defs
     id="defs3960">
    <linearGradient
       inkscape:collect="always"
       xlink:href="#linearGradient3974"
       id="linearGradient3136"
       gradientUnits="userSpaceOnUse"
       x1="-284.28873"
       y1="258.56543"
       x2="-284.28873"
       y2="639.42023" />
    <linearGradient
       id="linearGradient3974">
      <stop
         id="stop3976"
         offset="0"
         style="stop-color:#3465a4;stop-opacity:1;" />
      <stop
         id="stop3978"
         offset="1"
         style="stop-color:#204a87;stop-opacity:1;" />
    </linearGradient>
  </defs>
  <sodipodi:namedview
     id="base"
     pagecolor="#ffffff"
     bordercolor="#666666"
     borderopacity="1.0"
     inkscape:pageopacity="0.0"
     inkscape:pageshadow="2"
     inkscape:zoom="1.4"
     inkscape:cx="138.56698"
     inkscape:cy="156.26267"
     inkscape:document-units="px"
     inkscape:current-layer="layer1"
     showgrid="false"
     fit-margin-top="0"
     fit-margin-left="0"
     fit-margin-right="0"
     fit-margin-bottom="0"
     inkscape:window-width="2086"
     inkscape:window-height="1277"
     inkscape:window-x="0"
     inkscape:window-y="60"
     inkscape:window-maximized="0" />
  <metadata
     id="metadata3963">
    <rdf:RDF>
      <cc:Work
         rdf:about="">
        <dc:format>image/svg+xml</dc:format>
        <dc:type
           rdf:resource="http://purl.org/dc/dcmitype/StillImage" />
        <dc:title></dc:title>
      </cc:Work>
    </rdf:RDF>
  </metadata>
  <g
     inkscape:label="Livello 1"
     inkscape:groupmode="layer"
     id="layer1"
     transform="translate(-465.71426,-352.36218)">
    <g
       id="g3120"
       transform="translate(494.5738,100)">
      <g
         transform="translate(456.85475,0)"
         id="g3122">
        <rect
           ry="48.57143"
           rx="48.57143"
           y="252.36218"
           x="-485.71429"
           height="405.71429"
           width="405.71429"
           id="rect3124"
           style="fill:#d3d7cf;fill-opacity:1;stroke:none" />
        <path
           inkscape:connector-curvature="0"
           id="path3126"
           d="m -439.5625,254.4375 c -23.32197,0.49384 -44.19271,21.63293 -44.125,45.3125 0.0318,104.44553 -0.21954,208.90526 0.125,313.34375 1.17202,23.65312 23.03889,43.66042 46.40625,42.96875 104.08218,-0.0837 208.17353,0.16719 312.25,-0.125 23.41986,-1.2263 43.550041,-22.80366 42.90625,-46.5 -0.104782,-104.02969 0.209159,-208.07179 -0.15625,-312.09375 -1.199459,-24.0329 -23.56722,-44.11975 -47.40625,-42.96875 -103.33275,0.0418 -206.67007,-0.0835 -310,0.0625 z"
           style="fill:#babdb6;fill-opacity:1;stroke:none" />
        <path
           inkscape:connector-curvature="0"
           id="path3128"
           d="m -129.5,256.375 c -104.36101,0.16156 -208.75048,-0.33679 -313.09375,0.28125 -23.00894,2.29305 -41.48312,24.87874 -39.09375,48.09375 0.13102,103.46673 -0.41139,206.94991 0.28125,310.40625 2.44375,23.17089 25.24317,41.33146 48.25,38.90305 103.40288,-0.17062 206.83272,0.41064 310.21875,-0.3093 23.110562,-2.32403 41.378922,-25.24431 38.934295,-48.3125 -0.21452,-103.37176 0.441977,-206.76965 -0.340545,-310.125 -2.240002,-21.90031 -23.0265,-40.01118 -45.15625,-38.9375 z"
           style="fill:#888a85;fill-opacity:1;stroke:none" />
        <path
           inkscape:connector-curvature="0"
           id="path3138"
           d="m -130.28125,258.125 c -104.77403,1.0652 -209.59903,-0.92051 -314.34375,1.09375 -23.10839,2.95091 -36.27301,28.27228 -35.28125,50.125 0.81443,99.15252 -0.56392,198.32852 0.625,297.46875 0.30195,14.95108 4.84948,28.32045 16.40625,36.46875 10.96614,8.5872 25.54253,8.88232 38.96873,8.77143 101.68599,-0.47099 203.39121,1.16795 305.06252,-0.95893 22.577086,-4.84975 32.841992,-30.29799 32.838848,-52.03124 -0.699743,-102.76237 1.456849,-205.59796 -1.151348,-308.31251 -4.410414,-19.17914 -23.46032,-33.34826 -43.125,-32.625 z"
           style="fill:#eeeeec;fill-opacity:1;stroke:none"
           sodipodi:nodetypes="cccccccccc" />
        <path
           inkscape:connector-curvature="0"
           id="path3917"
           d="m -479.90625,307.34375 c 0.81443,99.15252 -0.56392,198.32852 0.625,297.46875 0.125,14.4491 4.84948,28.32045 16.40625,36.46875 10.96614,8.5872 24.5922,8.93596 38.96873,8.77143 101.68599,-0.47099 203.39121,1.16795 305.06252,-0.95893 22.577086,-4.84975 32.929182,-30.12361 32.838848,-52.03124 -0.699743,-102.76237 1.456849,-205.59796 -1.151348,-308.31251 -106.30835,52.32907 -329.2465,-37.13125 -392.75,18.59375 z"
           style="fill:#729fcf;fill-opacity:1;stroke:none"
           sodipodi:nodetypes="cccccccc" />
        <path
           sodipodi:nodetypes="cccccccc"
           style="fill:url(#linearGradient3136);fill-opacity:1;stroke:none"
           d="m -479.90625,309.34375 c 0.81443,99.15252 -0.56392,198.32852 0.625,297.46875 0.125,14.4491 4.84948,28.32045 16.40625,36.46875 10.96614,8.5872 24.5922,8.93596 38.96873,8.77143 101.68599,-0.47099 203.39121,1.16795 305.06252,-0.95893 22.577086,-4.84975 32.929182,-30.12361 32.838848,-52.03124 -0.699743,-102.76237 1.456849,-205.59796 -1.151348,-308.31251 -106.30835,52.32907 -329.2465,-37.13125 -392.75,18.59375 z"
           id="path3130"
           inkscape:connector-curvature="0" />
      </g>
    </g>
    <g
       id="g3407"
       transform="matrix(0.98398202,0,0,0.94419797,-72.732436,19.210893)">
      <path
         style="fill:#3465a4"
         d="m 653.7642,421.27186 c -9.4807,-0.78916 -3.6181,1.93231 1.5355,4.51331 4.1271,2.88182 10.6659,4.51197 13.3347,8.14144 -0.7278,6.06246 -1.5014,12.20564 -2.1818,18.22208 -3.2457,-0.43861 -13.9469,-7.18535 -11.0938,-2.59746 6.2202,4.11847 0.3905,9.14716 -1.3223,3.57768 1.9917,-8.14076 -6.0865,-1.60239 -10.2827,-0.74932 -3.7133,2.39177 -3.2608,3.56709 -9.4305,2.21964 -4.203,0.23637 -10.7629,-2.48677 -13.5983,-0.62874 -0.9366,5.33874 1.0431,12.05679 -4.694,15.07392 -4.8137,5.25341 -12.5602,8.8022 -12.7609,16.79309 -5.3069,21.51453 -11.0062,42.93698 -15.7794,64.57792 8.161,2.09393 16.5453,5.88336 24.5599,6.9432 8.5107,-3.37572 8.256,-13.7656 12.0893,-20.58455 -0.9535,21.38511 8.8814,41.00772 10.8369,61.94425 1.7598,5.85079 -2.2805,8.47669 -6.9705,10.72793 4.5442,5.94261 -6.7642,-3.26989 -6.0905,5.23471 -4.7136,8.87428 -8.164,18.65139 -13.6841,26.95601 -6.2693,6.26926 -12.5385,12.53852 -18.8078,18.80778 2.2626,11.17287 6.316,22.18251 4.7148,33.7312 -0.019,8.0485 -0.8931,16.33856 -0.4127,24.23773 2.7304,3.98429 4.2596,10.20973 10.3739,8.11401 5.6888,1.13286 9.9375,-0.80744 12.7001,-5.92569 4.5798,-3.16068 3.9256,-7.10961 1.268,-11.39147 -3.5063,-14.13556 -3.652,-28.79639 -5.0372,-43.26568 6.331,-9.91522 11.2575,-20.9286 18.483,-30.13987 8.0723,-8.21465 17.118,-15.93053 24.5921,-24.45275 1.3298,-11.1621 2.6683,-22.32298 3.9481,-33.49074 11.2412,5.4065 21.0711,13.02672 30.9857,20.44841 0.3508,7.43245 -1.5416,15.35364 3.0656,21.85764 6.5546,13.63263 12.377,27.63855 16.4843,42.21041 1.3359,4.15349 3.9481,7.6665 6.7798,10.94576 12.0178,-2.52305 22.9307,-8.06146 34.2259,-12.49777 18.308,-6.48761 37.0741,-11.56907 55.6818,-17.12656 0.1361,-3.60011 6.8416,-12.07212 0.354,-10.94575 -14.4273,-0.57776 -28.8037,1.03557 -42.8301,4.38374 5.1159,6.36115 -6.0688,-1.91592 -9.0456,3.25217 -9.6544,3.65229 -19.3563,8.56832 -29.9997,7.93864 -3.9222,-11.2075 -10.5456,-21.72958 -10.6329,-33.91038 -1.1153,-8.0471 -1.5598,-16.37219 -3.0901,-24.24915 -12.244,-16.39837 -23.9683,-33.27676 -39.7261,-46.42415 7.9702,4.15708 3.4838,-4.12321 4.8563,-6.49669 7.2624,3.29935 7.3475,-0.86858 5.4603,-7.0518 -2.0493,-4.65928 5.0409,-3.52866 6.8917,-6.81824 1.0895,-1.05736 1.8957,-2.50825 1.8788,-4.057 3.7611,0.34824 8.5933,-4.99945 12.7409,-6.7292 2.9418,-4.05326 1.9331,-10.72702 3.2966,-15.81579 1.4686,-7.12191 1.593,-14.88278 6.2896,-20.82961 -4.8989,-4.79015 -9.6023,-10.54301 -16.4186,-12.55222 2.8805,-4.26358 8.9564,-7.68009 5.9981,-13.46172 -1.0629,-8.81421 -4.6156,-17.1915 -11.0898,-23.43255 -6.6276,0.63605 -13.696,3.09037 -20.0622,2.64369 -5.3975,-3.78686 -11.1727,-9.18371 -18.3841,-7.87151 z m -10.6462,36.78536 c 1.1683,2.73835 -11.4836,9.41061 -3.4704,2.81909 0.958,-0.27752 2.7482,-4.44224 3.4704,-2.81909 z m 49.6915,16.25526 c 3.0381,0.81496 0.4983,5.83497 1.3343,8.0051 5.7812,-5.15223 2.0467,6.82858 3.1039,10.18337 -2.5696,1.06769 -4.1624,-1.48696 -3.5425,-4.01576 -0.5408,-4.67019 -1.1753,-9.45266 -1.7125,-14.17271 l 0.8168,0 z m -10.2378,34.47096 c 2.0782,1.51499 3.7061,3.56193 5.2006,5.63624 -4.0533,0.76116 -6.9713,-0.10789 -5.5546,-4.51989 0.087,-0.37776 0.1589,-0.78956 0.354,-1.11635 z"
         id="path3132"
         inkscape:connector-curvature="0" />
      <path
         sodipodi:nodetypes="ccccccccccccccccccssccsscccccccccccccccccccccccccccccccccccccccsccccccccccscccccccsscccscccccccccccccccccsccccccsscccsssccccccccscccccccccccscccccscccccccccsscccs"
         style="fill:#eeeeec"
         d="m 605.3925,728.27931 -5.6623,0 -2.2605,-3.65786 -2.2611,-3.65785 0.5015,-17.36014 0.5013,-17.36014 -2.4403,-10.8784 -2.4402,-10.87841 9.8022,-9.80236 9.8024,-9.80236 7.0387,-14.54027 7.0393,-14.54029 4.4622,1.71228 4.4621,1.71229 -1.7693,-2.86296 -1.77,-2.86295 3.1651,-1.95581 3.1646,-1.95582 0,-7.44875 c 0,-4.09681 -2.3259,-15.57401 -5.1689,-25.50489 -2.8429,-9.93087 -5.2948,-22.61003 -5.4492,-28.17591 l -0.2803,-10.11977 -1.9977,0 c -1.099,0 -2.9617,3.83926 -4.1394,8.53169 -1.1777,4.69244 -3.5787,9.4202 -5.336,10.50616 l -3.1947,1.97445 -10.819,-3.32042 -10.819,-3.32043 1.4284,-6.40728 c 0.786,-3.52401 4.5912,-19.01808 8.4569,-34.43127 l 7.0289,-28.024 7.5552,-7.02428 7.5553,-7.02429 0.4251,-5.64321 0.425,-5.64323 6.3859,0.73136 c 3.5127,0.40225 7.6546,0.84813 9.2042,0.99085 l 2.8181,0.25947 -5.3559,5.91843 -5.3566,5.91843 4.0952,2.36523 4.0952,2.36523 -2.3155,-2.55525 -2.3155,-2.55527 6.2599,-4.38456 6.2594,-4.38456 -1.5908,-2.57445 -1.5913,-2.57444 4.6529,-1.78544 4.653,-1.78544 0,3.01604 0,3.01605 4.8545,0 4.8539,0 -1.902,-3.0781 -1.9026,-3.07812 4.8322,1.85436 4.8328,1.85436 0.3548,-2.66846 c 0.1956,-1.46767 0.812,-6.52104 1.3704,-11.22973 l 1.0154,-8.56125 -8.3763,-4.54764 -8.3764,-4.54763 3.2972,-0.12466 c 1.8135,-0.0686 5.9808,1.838 9.2615,4.23682 l 5.9645,4.36148 9.5657,-1.55223 9.5655,-1.55224 3.9051,4.70527 c 2.1472,2.5879 4.5881,8.47229 5.4225,13.07644 l 1.5181,8.37116 -4.0104,4.86024 -4.0105,4.86022 3.9475,1.32854 c 2.1714,0.7307 6.0378,3.4182 8.5919,5.97222 l 4.6438,4.64368 -1.8663,3.01929 c -1.0264,1.66061 -2.7908,9.4527 -3.9207,17.31576 l -2.0553,14.29645 -5.6314,3.4512 -5.6314,3.45123 -4.0529,-5.44911 c -2.2295,-2.99701 -4.9496,-5.44911 -6.045,-5.44911 -1.096,0 -1.9922,2.1018 -1.9922,4.67066 l 0,4.67067 4.6705,0 4.6705,0 0,3.2115 c 0,1.76633 -2.1267,4.02756 -4.7256,5.02496 l -4.7255,1.81346 0.8331,5.09481 0.8338,5.09481 -3.8923,-0.77844 -3.8923,-0.77844 0.7787,3.89222 0.778,3.89222 -4.6704,-0.92859 -4.6705,-0.9286 9.8648,8.71304 c 5.4261,4.79216 15.3992,16.13552 22.1636,25.20746 l 12.2983,16.49442 1.9965,16.98572 1.9965,16.9857 4.9804,12.44807 4.9811,12.44808 5.8264,0 c 3.2045,0 11.4567,-2.2528 18.338,-5.00624 l 12.5121,-5.00622 4.8388,1.85678 4.8381,1.85679 -1.6676,-2.699 -1.6682,-2.69899 9.68,-1.93601 c 5.3238,-1.0648 14.5255,-1.936 20.4482,-1.936 l 10.7688,0 -1.2904,3.89222 -1.2898,3.89222 -28.377,8.36062 c -15.6076,4.59835 -31.4526,10.00667 -35.2117,12.0185 -3.7591,2.01184 -10.7706,4.78649 -15.5803,6.16592 l -8.7451,2.50805 -2.8466,-3.62832 c -1.5653,-1.99559 -3.7767,-7.51894 -4.9127,-12.27413 -1.1366,-4.75518 -5.5333,-16.2253 -9.7709,-25.48914 l -7.7041,-16.84334 0,-7.8255 0,-7.82549 -10.1202,-7.55219 c -5.5655,-4.1537 -13.4229,-9.25902 -17.46,-11.34514 l -7.3402,-3.79296 -3.558,3.85904 -3.5576,3.85905 3.7573,-2.11415 3.7574,-2.11414 -1.9444,16.44778 -1.9443,16.44777 -13.0268,12.66732 -13.0263,12.66732 -8.5259,14.54739 -8.5252,14.54736 1.5302,19.49196 c 0.8416,10.72057 2.5245,21.9619 3.7398,24.98072 l 2.2101,5.48876 -3.8433,4.63101 -3.8433,4.63101 z m 90.4973,-230.41947 3.1136,0 0,-7.96821 0,-7.96821 3.5951,2.22176 3.595,2.22176 -2.2532,-3.64567 -2.2532,-3.64568 -2.8987,1.79145 -2.8986,1.79145 0,-3.29755 c 0,-1.81364 -1.3171,-3.29754 -2.9272,-3.29754 l -2.9271,0 1.0149,8.56289 c 0.5588,4.70958 1.1753,9.61379 1.3703,10.89821 0.1955,1.28445 1.7566,2.33534 3.4691,2.33534 z"
         id="path3134"
         inkscape:connector-curvature="0" />
    </g>
    <path
       style="fill:#b3b3b3"
       id="path3380"
       d="m 668.37781,608.60888 c -1.81594,6.11381 -2.17119,12.58812 -2.6742,18.91708 -0.88413,11.43918 -1.43326,22.90338 -1.85083,34.36826 -0.33956,11.04217 -0.36889,22.09034 -0.30556,33.13651 0.11885,6.70582 -0.0542,13.41112 -0.0879,20.11666 -0.12029,2.28782 -0.0326,4.645 -0.59447,6.88379 -3.74465,12.35818 -28.77531,25.04878 -29.9096,11.31053 -0.21188,-3.10399 0.32937,-6.12903 0.98764,-9.1462 1.38529,-5.91821 2.94008,-11.79374 4.53625,-17.65797 2.4703,-8.95492 6.03293,-17.5497 10.00991,-25.92679 3.84438,-7.4521 8.27813,-14.6464 13.67752,-21.08285 1.01068,-1.20479 2.09041,-2.34992 3.13562,-3.52488 2.97643,-3.19989 6.17474,-6.18733 9.63203,-8.86301 10.00132,-7.74027 29.5251,-17.58214 35.94112,-21.24036 4.93537,-1.99545 9.68846,-3.51909 15.03952,-2.28302 0.95884,0.22149 1.87649,0.59375 2.81474,0.89062 5.07206,2.01211 9.09423,5.47752 12.16782,9.95395 0.7033,1.0243 1.30651,2.11384 1.95976,3.17076 4.12709,7.40592 6.46377,15.59059 8.50763,23.76573 1.79774,7.99148 2.93401,16.09789 3.92377,24.22084 0.64451,6.24764 1.3109,12.49164 2.2409,18.70396 0.47969,3.57454 1.32393,7.07678 2.1653,10.5779 0.52899,1.71168 0.85565,3.5102 1.59886,5.14837 0.0835,0.1379 0.1113,0.33224 0.25039,0.41369 0.0739,0.0433 0.0496,-0.17668 0.0182,-0.2564 -0.17435,-0.44261 -0.20086,-1.49919 -0.6247,-1.28316 -9.04997,5.14684 -18.09994,10.29368 -27.14992,15.44052 0.54564,-0.20319 0.30235,-0.0579 0.73333,-0.43006 0.85553,-2.02885 1.36234,-4.18828 1.8889,-6.32074 1.56054,-5.69279 3.73314,-11.19215 6.00211,-16.63317 3.32389,-7.96351 7.27025,-15.63118 11.5636,-23.10894 4.38731,-7.33105 9.44734,-14.23187 14.82053,-20.86439 2.25913,-2.6486 4.65098,-5.20006 7.31933,-7.44433 8.77894,-7.38369 32.25283,-19.06746 34.10579,-20.11891 4.11254,-1.50047 8.41107,-1.92024 12.65575,-0.70565 0.78006,0.2232 1.52893,0.54371 2.2934,0.81557 5.22626,2.41196 8.83003,6.90889 12.23421,11.37883 4.14007,5.58921 7.34319,11.77342 10.18837,18.09762 2.0128,4.55059 3.8736,9.19261 5.11807,14.01985 0.67664,2.62464 0.98533,4.52165 1.48238,7.17988 1.01281,6.57034 1.73641,13.17736 2.27509,19.80181 0.26521,3.38458 0.43472,6.77518 0.54453,10.16805 0.0774,1.5872 0.0448,3.17381 0.0472,4.76109 0,0 -28.39668,14.458 -28.39668,14.458 l 0,0 c 0.0121,-1.60277 0.001,-3.20451 0.08,-4.80692 0.0937,-3.4246 0.14953,-6.85145 0.0516,-10.27678 -0.23057,-6.56946 -0.79446,-13.11776 -1.81573,-19.61523 -0.3877,-2.18537 -0.81156,-4.7681 -1.33133,-6.92943 -1.1309,-4.7026 -2.92371,-9.21373 -4.86108,-13.63364 -2.7738,-6.08487 -6.01535,-11.97681 -10.03967,-17.33481 -3.15644,-3.94084 -6.47213,-7.97023 -11.43948,-9.60504 -0.67771,-0.16033 -1.34537,-0.3715 -2.03313,-0.48098 -3.95696,-0.6299 -7.82602,0.43578 -11.37927,2.1362 8.05337,-4.69716 16.11871,-9.37385 24.16011,-14.09147 0.86097,-0.50511 -1.76354,0.9378 -2.61819,1.45354 -0.90022,0.54324 -1.79119,1.10525 -2.64314,1.72144 -2.8298,2.04671 -5.32003,4.51896 -7.72429,7.03684 -5.53473,6.47148 -10.70408,13.26055 -15.2214,20.48736 -4.32786,7.26774 -8.25899,14.76182 -11.45566,22.60327 -2.14306,5.19068 -4.12414,10.42801 -5.5742,15.86117 -0.46855,2.16986 -0.78939,4.35706 -1.35019,6.50385 -1.13177,12.11662 -24.24598,27.38761 -29.93906,15.25407 -0.83065,-1.86897 -1.2147,-3.87331 -1.72178,-5.84707 -0.67683,-3.65309 -1.53286,-7.27744 -1.87681,-10.98605 -0.81105,-6.30233 -1.28809,-12.64281 -1.91238,-18.96537 -0.84115,-8.03848 -1.80674,-16.06616 -3.53593,-23.97261 -1.93904,-7.8503 -4.15181,-15.73239 -8.2669,-22.76327 -0.62446,-0.95101 -1.20082,-1.9354 -1.87336,-2.85304 -2.84492,-3.8817 -6.60713,-6.77107 -11.24878,-8.13751 -0.84571,-0.15594 -1.68153,-0.3813 -2.53713,-0.46781 -4.82701,-0.48808 -9.471,1.49732 -13.73464,3.49588 7.73761,-4.51643 15.48314,-9.01933 23.21284,-13.54929 1.09733,-0.64308 -2.23308,1.22069 -3.31551,1.88856 -1.14705,0.70775 -2.26596,1.46139 -3.36903,2.2359 -3.58141,2.51464 -6.91146,5.3484 -9.98347,8.46627 -2.66146,2.78079 -3.94639,4.00087 -6.36375,7.02538 -4.1755,5.22425 -7.735,10.90685 -10.88735,16.79617 -3.989,8.09907 -7.52292,16.43749 -9.83616,25.18609 -1.42911,5.75171 -2.87515,11.49945 -4.1065,17.29769 -0.56433,2.71064 -1.17815,5.38541 -0.89857,8.17125 0.008,0.61212 0.0196,1.26315 -0.028,1.2648 -0.0787,0.003 -0.0678,-0.22812 -0.13761,-0.19182 -28.71188,14.92473 -38.57483,15.38837 -27.62427,14.81077 0.27463,-0.0787 0.74651,-0.17524 0.94655,-0.40624 0.75935,-0.87686 0.76873,-3.85625 1.0593,-4.93666 0.48108,-6.80925 0.96853,-13.62673 0.9852,-20.45609 0.17497,-11.15169 0.35072,-22.30401 0.73103,-33.45106 0.36688,-11.37937 0.71548,-22.76022 1.21084,-34.13465 0.26359,-6.32174 0.60432,-12.64656 1.26363,-18.94067 0,0 28.69689,-13.67203 28.69689,-13.67203 z"
       inkscape:connector-curvature="0" />
  </g>
</svg>
