<?xml version="1.0" encoding="UTF-8" standalone="no"?>
<svg
   width="540"
   height="540"
   viewBox="0 0 540 540"
   id="svg_foreground"
   version="1.1"
   sodipodi:docname="subsurface-mobile-icon-foreground-new.svg"
   inkscape:version="1.4 (e7c3feb1, 2024-10-09)"
   xmlns:inkscape="http://www.inkscape.org/namespaces/inkscape"
   xmlns:sodipodi="http://sodipodi.sourceforge.net/DTD/sodipodi-0.dtd"
   xmlns:xlink="http://www.w3.org/1999/xlink"
   xmlns="http://www.w3.org/2000/svg"
   xmlns:svg="http://www.w3.org/2000/svg">
  <sodipodi:namedview
     id="namedview1"
     pagecolor="#ffffff"
     bordercolor="#000000"
     borderopacity="0.25"
     inkscape:showpageshadow="2"
     inkscape:pageopacity="0.0"
     inkscape:pagecheckerboard="0"
     inkscape:deskcolor="#d1d1d1"
     inkscape:zoom="1.9722222"
     inkscape:cx="269.74648"
     inkscape:cy="270"
     inkscape:window-width="1648"
     inkscape:window-height="1022"
     inkscape:window-x="0"
     inkscape:window-y="30"
     inkscape:window-maximized="0"
     inkscape:current-layer="svg_foreground" />
  <defs
     id="defs">
    <linearGradient
       id="linearGradient3974">
      <stop
         id="stop3976"
         offset="0"
         style="stop-color:#3465a4;stop-opacity:1;" />
      <stop
         id="stop3978"
         offset="1"
         style="stop-color:#204a87;stop-opacity:1;" />
    </linearGradient>
    <linearGradient
       xlink:href="#linearGradient3974"
       id="linearGradient3136"
       gradientUnits="userSpaceOnUse"
       x1="-284.28873"
       y1="258.56543"
       x2="-284.28873"
       y2="639.42023" />
  </defs>
  <!-- Foreground layer for Android adaptive icon.
       Canvas is 108dp (540px at 5x for high quality).
       The diver and "m" are centered and scaled to fit within
       the 66dp safe zone (330px). -->
  <g
     id="g1"
     transform="translate(100,-10)">
    <g
       id="g3407"
       transform="matrix(0.93478292,0,0,0.89698807,-484.61694,-247.48557)">
      <path
         style="fill:#ffffff"
         d="m 653.7642,421.27186 c -9.4807,-0.78916 -3.6181,1.93231 1.5355,4.51331 4.1271,2.88182 10.6659,4.51197 13.3347,8.14144 -0.7278,6.06246 -1.5014,12.20564 -2.1818,18.22208 -3.2457,-0.43861 -13.9469,-7.18535 -11.0938,-2.59746 6.2202,4.11847 0.3905,9.14716 -1.3223,3.57768 1.9917,-8.14076 -6.0865,-1.60239 -10.2827,-0.74932 -3.7133,2.39177 -3.2608,3.56709 -9.4305,2.21964 -4.203,0.23637 -10.7629,-2.48677 -13.5983,-0.62874 -0.9366,5.33874 1.0431,12.05679 -4.694,15.07392 -4.8137,5.25341 -12.5602,8.8022 -12.7609,16.79309 -5.3069,21.51453 -11.0062,42.93698 -15.7794,64.57792 8.161,2.09393 16.5453,5.88336 24.5599,6.9432 8.5107,-3.37572 8.256,-13.7656 12.0893,-20.58455 -0.9535,21.38511 8.8814,41.00772 10.8369,61.94425 1.7598,5.85079 -2.2805,8.47669 -6.9705,10.72793 4.5442,5.94261 -6.7642,-3.26989 -6.0905,5.23471 -4.7136,8.87428 -8.164,18.65139 -13.6841,26.95601 -6.2693,6.26926 -12.5385,12.53852 -18.8078,18.80778 2.2626,11.17287 6.316,22.18251 4.7148,33.7312 -0.019,8.0485 -0.8931,16.33856 -0.4127,24.23773 2.7304,3.98429 4.2596,10.20973 10.3739,8.11401 5.6888,1.13286 9.9375,-0.80744 12.7001,-5.92569 4.5798,-3.16068 3.9256,-7.10961 1.268,-11.39147 -3.5063,-14.13556 -3.652,-28.79639 -5.0372,-43.26568 6.331,-9.91522 11.2575,-20.9286 18.483,-30.13987 8.0723,-8.21465 17.118,-15.93053 24.5921,-24.45275 1.3298,-11.1621 2.6683,-22.32298 3.9481,-33.49074 11.2412,5.4065 21.0711,13.02672 30.9857,20.44841 0.3508,7.43245 -1.5416,15.35364 3.0656,21.85764 6.5546,13.63263 12.377,27.63855 16.4843,42.21041 1.3359,4.15349 3.9481,7.6665 6.7798,10.94576 12.0178,-2.52305 22.9307,-8.06146 34.2259,-12.49777 18.308,-6.48761 37.0741,-11.56907 55.6818,-17.12656 0.1361,-3.60011 6.8416,-12.07212 0.354,-10.94575 -14.4273,-0.57776 -28.8037,1.03557 -42.8301,4.38374 5.1159,6.36115 -6.0688,-1.91592 -9.0456,3.25217 -9.6544,3.65229 -19.3563,8.56832 -29.9997,7.93864 -3.9222,-11.2075 -10.5456,-21.72958 -10.6329,-33.91038 -1.1153,-8.0471 -1.5598,-16.37219 -3.0901,-24.24915 -12.244,-16.39837 -23.9683,-33.27676 -39.7261,-46.42415 7.9702,4.15708 3.4838,-4.12321 4.8563,-6.49669 7.2624,3.29935 7.3475,-0.86858 5.4603,-7.0518 -2.0493,-4.65928 5.0409,-3.52866 6.8917,-6.81824 1.0895,-1.05736 1.8957,-2.50825 1.8788,-4.057 3.7611,0.34824 8.5933,-4.99945 12.7409,-6.7292 2.9418,-4.05326 1.9331,-10.72702 3.2966,-15.81579 1.4686,-7.12191 1.593,-14.88278 6.2896,-20.82961 -4.8989,-4.79015 -9.6023,-10.54301 -16.4186,-12.55222 2.8805,-4.26358 8.9564,-7.68009 5.9981,-13.46172 -1.0629,-8.81421 -4.6156,-17.1915 -11.0898,-23.43255 -6.6276,0.63605 -13.696,3.09037 -20.0622,2.64369 -5.3975,-3.78686 -11.1727,-9.18371 -18.3841,-7.87151 z m -10.6462,36.78536 c 1.1683,2.73835 -11.4836,9.41061 -3.4704,2.81909 0.958,-0.27752 2.7482,-4.44224 3.4704,-2.81909 z m 49.6915,16.25526 c 3.0381,0.81496 0.4983,5.83497 1.3343,8.0051 5.7812,-5.15223 2.0467,6.82858 3.1039,10.18337 -2.5696,1.06769 -4.1624,-1.48696 -3.5425,-4.01576 -0.5408,-4.67019 -1.1753,-9.45266 -1.7125,-14.17271 z m -10.2378,34.47096 c 2.0782,1.51499 3.7061,3.56193 5.2006,5.63624 -4.0533,0.76116 -6.9713,-0.10789 -5.5546,-4.51989 0.087,-0.37776 0.1589,-0.78956 0.354,-1.11635 z"
         id="path3132" />
      <path
         style="fill:#eeeeec"
         d="m 605.3925,728.27931 h -5.6623 l -2.2605,-3.65786 -2.2611,-3.65785 0.5015,-17.36014 0.5013,-17.36014 -2.4403,-10.8784 -2.4402,-10.87841 9.8022,-9.80236 9.8024,-9.80236 7.0387,-14.54027 7.0393,-14.54029 4.4622,1.71228 4.4621,1.71229 -1.7693,-2.86296 -1.77,-2.86295 3.1651,-1.95581 3.1646,-1.95582 v -7.44875 c 0,-4.09681 -2.3259,-15.57401 -5.1689,-25.50489 -2.8429,-9.93087 -5.2948,-22.61003 -5.4492,-28.17591 l -0.2803,-10.11977 h -1.9977 c -1.099,0 -2.9617,3.83926 -4.1394,8.53169 -1.1777,4.69244 -3.5787,9.4202 -5.336,10.50616 l -3.1947,1.97445 -10.819,-3.32042 -10.819,-3.32043 1.4284,-6.40728 c 0.786,-3.52401 4.5912,-19.01808 8.4569,-34.43127 l 7.0289,-28.024 7.5552,-7.02428 7.5553,-7.02429 0.4251,-5.64321 0.425,-5.64323 6.3859,0.73136 c 3.5127,0.40225 7.6546,0.84813 9.2042,0.99085 l 2.8181,0.25947 -5.3559,5.91843 -5.3566,5.91843 4.0952,2.36523 4.0952,2.36523 -2.3155,-2.55525 -2.3155,-2.55527 6.2599,-4.38456 6.2594,-4.38456 -1.5908,-2.57445 -1.5913,-2.57444 4.6529,-1.78544 4.653,-1.78544 v 3.01604 3.01605 h 4.8545 4.8539 l -1.902,-3.0781 -1.9026,-3.07812 4.8322,1.85436 4.8328,1.85436 0.3548,-2.66846 c 0.1956,-1.46767 0.812,-6.52104 1.3704,-11.22973 l 1.0154,-8.56125 -8.3763,-4.54764 -8.3764,-4.54763 3.2972,-0.12466 c 1.8135,-0.0686 5.9808,1.838 9.2615,4.23682 l 5.9645,4.36148 9.5657,-1.55223 9.5655,-1.55224 3.9051,4.70527 c 2.1472,2.5879 4.5881,8.47229 5.4225,13.07644 l 1.5181,8.37116 -4.0104,4.86024 -4.0105,4.86022 3.9475,1.32854 c 2.1714,0.7307 6.0378,3.4182 8.5919,5.97222 l 4.6438,4.64368 -1.8663,3.01929 c -1.0264,1.66061 -2.7908,9.4527 -3.9207,17.31576 l -2.0553,14.29645 -5.6314,3.4512 -5.6314,3.45123 -4.0529,-5.44911 c -2.2295,-2.99701 -4.9496,-5.44911 -6.045,-5.44911 -1.096,0 -1.9922,2.1018 -1.9922,4.67066 v 4.67067 h 4.6705 4.6705 v 3.2115 c 0,1.76633 -2.1267,4.02756 -4.7256,5.02496 l -4.7255,1.81346 0.8331,5.09481 0.8338,5.09481 -3.8923,-0.77844 -3.8923,-0.77844 0.7787,3.89222 0.778,3.89222 -4.6704,-0.92859 -4.6705,-0.9286 9.8648,8.71304 c 5.4261,4.79216 15.3992,16.13552 22.1636,25.20746 l 12.2983,16.49442 1.9965,16.98572 1.9965,16.9857 4.9804,12.44807 4.9811,12.44808 h 5.8264 c 3.2045,0 11.4567,-2.2528 18.338,-5.00624 l 12.5121,-5.00622 4.8388,1.85678 4.8381,1.85679 -1.6676,-2.699 -1.6682,-2.69899 9.68,-1.93601 c 5.3238,-1.0648 14.5255,-1.936 20.4482,-1.936 h 10.7688 l -1.2904,3.89222 -1.2898,3.89222 -28.377,8.36062 c -15.6076,4.59835 -31.4526,10.00667 -35.2117,12.0185 -3.7591,2.01184 -10.7706,4.78649 -15.5803,6.16592 l -8.7451,2.50805 -2.8466,-3.62832 c -1.5653,-1.99559 -3.7767,-7.51894 -4.9127,-12.27413 -1.1366,-4.75518 -5.5333,-16.2253 -9.7709,-25.48914 l -7.7041,-16.84334 v -7.8255 -7.82549 l -10.1202,-7.55219 c -5.5655,-4.1537 -13.4229,-9.25902 -17.46,-11.34514 l -7.3402,-3.79296 -3.558,3.85904 -3.5576,3.85905 3.7573,-2.11415 3.7574,-2.11414 -1.9444,16.44778 -1.9443,16.44777 -13.0268,12.66732 -13.0263,12.66732 -8.5259,14.54739 -8.5252,14.54736 1.5302,19.49196 c 0.8416,10.72057 2.5245,21.9619 3.7398,24.98072 l 2.2101,5.48876 -3.8433,4.63101 -3.8433,4.63101 z m 90.4973,-230.41947 h 3.1136 v -7.96821 -7.96821 l 3.5951,2.22176 3.595,2.22176 -2.2532,-3.64567 -2.2532,-3.64568 -2.8987,1.79145 -2.8986,1.79145 v -3.29755 c 0,-1.81364 -1.3171,-3.29754 -2.9272,-3.29754 h -2.9271 l 1.0149,8.56289 c 0.5588,4.70958 1.1753,9.61379 1.3703,10.89821 0.1955,1.28445 1.7566,2.33534 3.4691,2.33534 z"
         id="path3134" />
    </g>
    <path
       style="fill:#b3b3b3;stroke-width:0.95"
       id="path3380"
       d="m 143.80399,290.76646 c -1.72514,5.80812 -2.06263,11.95871 -2.54049,17.97122 -0.83992,10.86722 -1.3616,21.75821 -1.75829,32.64985 -0.32258,10.49006 -0.35044,20.98582 -0.29028,31.47968 0.11291,6.37053 -0.0515,12.74057 -0.0835,19.11083 -0.11427,2.17343 -0.031,4.41275 -0.56474,6.5396 -3.55742,11.74027 -27.33655,23.79634 -28.41412,10.745 -0.20129,-2.94879 0.3129,-5.82257 0.93826,-8.68889 1.31602,-5.6223 2.79307,-11.20405 4.30943,-16.77507 2.34679,-8.50717 5.73129,-16.67221 9.50942,-24.63045 3.65216,-7.07949 7.86422,-13.91408 12.99364,-20.02871 0.96015,-1.14455 1.98589,-2.23242 2.97884,-3.34863 2.82761,-3.0399 5.866,-5.87796 9.15043,-8.41986 9.50125,-7.35326 28.04884,-16.70303 34.14406,-20.17834 4.6886,-1.89568 9.20404,-3.34314 14.28755,-2.16887 0.91089,0.21041 1.78266,0.56406 2.674,0.84609 4.81846,1.9115 8.63952,5.20364 11.55943,9.45625 0.66813,0.97308 1.24118,2.00815 1.86177,3.01222 3.92074,7.03563 6.14058,14.81106 8.08225,22.57745 1.70785,7.5919 2.78731,15.29299 3.72758,23.00979 0.61229,5.93526 1.24536,11.86706 2.12886,17.76877 0.4557,3.39581 1.25773,6.72294 2.05703,10.049 0.50254,1.6261 0.81287,3.33469 1.51892,4.89095 0.0793,0.13101 0.10573,0.31563 0.23787,0.39301 0.0702,0.0411 0.0471,-0.16785 0.0173,-0.24358 -0.16563,-0.42048 -0.19082,-1.42423 -0.59347,-1.219 -8.59747,4.88949 -17.19494,9.77899 -25.79242,14.66849 0.51836,-0.19303 0.28723,-0.055 0.69666,-0.40856 0.81276,-1.92741 1.29423,-3.97886 1.79446,-6.0047 1.48251,-5.40815 3.54648,-10.63254 5.702,-15.80151 3.1577,-7.56534 6.90674,-14.84962 10.98542,-21.9535 4.16795,-6.96449 8.97498,-13.52027 14.07951,-19.82117 2.14617,-2.51617 4.41843,-4.94005 6.95336,-7.07211 8.33999,-7.0145 30.64019,-18.11409 32.4005,-19.11296 3.90691,-1.42545 7.99052,-1.82423 12.02296,-0.67037 0.74106,0.21204 1.45249,0.51652 2.17873,0.77479 4.96495,2.29136 8.38853,6.56345 11.6225,10.80989 3.93307,5.30975 6.97603,11.18475 9.67895,17.19274 1.91216,4.32306 3.67992,8.73298 4.86217,13.31886 0.64281,2.4934 0.93606,4.29556 1.40826,6.82088 0.96217,6.24182 1.64959,12.51849 2.16134,18.81172 0.25195,3.21535 0.41298,6.43642 0.5173,9.65965 0.0735,1.50784 0.0426,3.01512 0.0448,4.52303 0,0 -26.97685,13.7351 -26.97685,13.7351 v 0 c 0.0115,-1.52263 9.5e-4,-3.04428 0.076,-4.56657 0.089,-3.25337 0.14206,-6.50888 0.049,-9.76294 -0.21904,-6.24099 -0.75473,-12.46187 -1.72494,-18.63447 -0.36831,-2.0761 -0.77098,-4.52969 -1.26476,-6.58296 -1.07436,-4.46747 -2.77753,-8.75304 -4.61803,-12.95196 -2.63511,-5.78062 -5.71458,-11.37797 -9.53769,-16.46807 -2.99861,-3.74379 -6.14852,-7.57171 -10.8675,-9.12478 -0.64383,-0.15232 -1.2781,-0.35293 -1.93148,-0.45693 -3.75911,-0.59841 -7.43471,0.41399 -10.8103,2.02939 7.6507,-4.46231 15.31277,-8.90516 22.9521,-13.3869 0.81792,-0.47986 -1.67536,0.89091 -2.48728,1.38086 -0.85521,0.51608 -1.70163,1.04999 -2.51098,1.63537 -2.68831,1.94437 -5.05403,4.29301 -7.33808,6.685 -5.25799,6.1479 -10.16887,12.59752 -14.46033,19.46299 -4.11146,6.90435 -7.84604,14.02373 -10.88287,21.47311 -2.03591,4.93114 -3.91794,9.90661 -5.29549,15.06811 -0.44513,2.06136 -0.74992,4.1392 -1.28268,6.17866 -1.07519,11.51078 -23.03368,26.01822 -28.44211,14.49136 -0.78912,-1.77552 -1.15397,-3.67964 -1.63569,-5.55471 -0.64299,-3.47044 -1.45622,-6.91357 -1.78297,-10.43675 -0.7705,-5.98722 -1.22369,-12.01067 -1.81676,-18.0171 -0.79909,-7.63656 -1.71641,-15.26286 -3.35914,-22.77398 -1.84208,-7.45779 -3.94422,-14.94577 -7.85355,-21.62511 -0.59324,-0.90346 -1.14078,-1.83863 -1.77969,-2.71039 -2.70268,-3.68761 -6.27678,-6.43251 -10.68634,-7.73063 -0.80343,-0.14815 -1.59746,-0.36224 -2.41028,-0.44442 -4.58566,-0.46368 -8.99745,1.42245 -13.04791,3.32108 7.35073,-4.2906 14.70899,-8.56836 22.0522,-12.87182 1.04247,-0.61093 -2.12142,1.15965 -3.14973,1.79413 -1.0897,0.67236 -2.15266,1.38832 -3.20058,2.12411 -3.40234,2.3889 -6.56589,5.08098 -9.4843,8.04295 -2.52838,2.64175 -3.74907,3.80083 -6.04556,6.67411 -3.96672,4.96304 -7.34825,10.36151 -10.34298,15.95636 -3.78955,7.69412 -7.14678,15.61562 -9.34435,23.92679 -1.35766,5.46412 -2.7314,10.92448 -3.90118,16.43281 -0.53611,2.5751 -1.11924,5.11614 -0.85364,7.76268 0.008,0.58152 0.0186,1.2 -0.0266,1.20156 -0.0748,0.003 -0.0644,-0.21671 -0.13073,-0.18223 -27.27629,14.1785 -36.64609,14.61896 -26.24306,14.07024 0.2609,-0.0748 0.70919,-0.16648 0.89923,-0.38593 0.72138,-0.83302 0.73029,-3.66344 1.00633,-4.68983 0.45703,-6.46879 0.9201,-12.94539 0.93594,-19.43328 0.16622,-10.59411 0.33319,-21.18881 0.69448,-31.77851 0.34854,-10.8104 0.67971,-21.62221 1.1503,-32.42792 0.25041,-6.00565 0.5741,-12.01423 1.20045,-17.99364 0,0 27.26204,-12.98842 27.26204,-12.98842 z" />
  </g>
</svg>
