<?xml version="1.0" encoding="UTF-8" standalone="no"?>
<!-- Created with Inkscape (http://www.inkscape.org/) -->

<svg
   xmlns:dc="http://purl.org/dc/elements/1.1/"
   xmlns:cc="http://creativecommons.org/ns#"
   xmlns:rdf="http://www.w3.org/1999/02/22-rdf-syntax-ns#"
   xmlns:svg="http://www.w3.org/2000/svg"
   xmlns="http://www.w3.org/2000/svg"
   xmlns:sodipodi="http://sodipodi.sourceforge.net/DTD/sodipodi-0.dtd"
   xmlns:inkscape="http://www.inkscape.org/namespaces/inkscape"
   width="16"
   height="16"
   id="svg4183"
   version="1.1"
   inkscape:version="0.91 r13725"
   sodipodi:docname="view-readmode.svg">
  <defs
     id="defs4185" />
  <sodipodi:namedview
     id="base"
     pagecolor="#ffffff"
     bordercolor="#666666"
     borderopacity="1.0"
     inkscape:pageopacity="0.0"
     inkscape:pageshadow="2"
     inkscape:zoom="1"
     inkscape:cx="8.5616986"
     inkscape:cy="7.1492155"
     inkscape:document-units="px"
     inkscape:current-layer="layer1"
     showgrid="true"
     inkscape:window-width="1920"
     inkscape:window-height="1006"
     inkscape:window-x="0"
     inkscape:window-y="0"
     inkscape:window-maximized="1"
     showguides="false"
     inkscape:guide-bbox="true"
     inkscape:showpageshadow="false"
     borderlayer="true">
    <inkscape:grid
       type="xygrid"
       id="grid4103" />
    <sodipodi:guide
       position="2,20.000017"
       orientation="18,0"
       id="guide4095" />
    <sodipodi:guide
       position="2,2.0000174"
       orientation="0,18"
       id="guide4097" />
    <sodipodi:guide
       position="20,2.0000174"
       orientation="-18,0"
       id="guide4099" />
    <sodipodi:guide
       position="20,20.000017"
       orientation="0,-18"
       id="guide4101" />
    <sodipodi:guide
       position="3,19.000017"
       orientation="16,0"
       id="guide4103" />
    <sodipodi:guide
       position="3,3.0000174"
       orientation="0,16"
       id="guide4105" />
    <sodipodi:guide
       position="19,3.0000174"
       orientation="-1,6.123234e-17"
       id="guide4107" />
    <sodipodi:guide
       position="19,19.000017"
       orientation="0,-16"
       id="guide4109" />
    <sodipodi:guide
       position="10.292994,3.0001395"
       orientation="0,1.414012"
       id="guide4266" />
    <sodipodi:guide
       position="10,3.0000174"
       orientation="0,2"
       id="guide4137" />
  </sodipodi:namedview>
  <metadata
     id="metadata4188">
    <rdf:RDF>
      <cc:Work
         rdf:about="">
        <dc:format>image/svg+xml</dc:format>
        <dc:type
           rdf:resource="http://purl.org/dc/dcmitype/StillImage" />
        <dc:title></dc:title>
      </cc:Work>
    </rdf:RDF>
  </metadata>
  <g
     inkscape:label="Capa 1"
     inkscape:groupmode="layer"
     id="layer1"
     transform="translate(0,-1036.3622)">
    <path
       inkscape:connector-curvature="0"
       id="rect6742"
       d="m 5,1039.3622 c -2,0 -3.02083,1.5 -4,1.5 -0.9792,0 -1,-0.5 -1,-0.5 l 0,8 c 0,0 -0.0417,0.5 1,0.5 1.04167,0 2,-1.5 4,-1.5 2,0 3,1 3,1 0,0 1,-1 3,-1 2,0 2.89583,1.5 4,1.5 1.10417,0 1,-0.5 1,-0.5 l 0,-7.9375 c -0.0371,0.1406 -0.21875,0.4375 -1,0.4375 -1.04167,0 -2,-1.5 -4,-1.5 -2,0 -3,1 -3,1 0,0 -1,-1 -3,-1 z m 0,1 c 0.83333,0 1.9477275,0.3853 2.28125,0.7188 0.366467,0.2812 1.071033,0.2812 1.4375,0 0.270433,-0.2704 1.44792,-0.7188 2.28125,-0.7188 2,0 2.3125,1.5 4,1.5 l 0,6 c -0.861649,0 -1.855068,-1.5 -4,-1.5 -1.16667,0 -2.410156,0.2227 -3,0.8125 -0.5605,-0.5605 -1.83333,-0.8125 -3,-0.8125 -2.0510194,0 -3.3570144,1.5 -4,1.5 l 0,-6 c 1.53147,0 2,-1.5 4,-1.5 z"
       style="color:#000000;display:inline;overflow:visible;visibility:visible;fill:#4d4d4d;fill-opacity:1;fill-rule:nonzero;stroke:none;stroke-width:3;marker:none;enable-background:accumulate"
       sodipodi:nodetypes="ssccsscssccsscssccsccscsccs" />
  </g>
</svg>
